<svg width="291" height="53" viewBox="0 0 291 53" fill="none" xmlns="http://www.w3.org/2000/svg">
<path d="M0.896 52V1.6H18.104C24.008 1.6 28.856 2.656 32.648 4.768C36.488 6.832 39.32 9.76 41.144 13.552C43.016 17.296 43.952 21.712 43.952 26.8C43.952 31.888 43.016 36.328 41.144 40.12C39.32 43.864 36.488 46.792 32.648 48.904C28.856 50.968 24.008 52 18.104 52H0.896ZM10.112 44.08H17.672C21.896 44.08 25.232 43.408 27.68 42.064C30.128 40.672 31.88 38.704 32.936 36.16C33.992 33.568 34.52 30.448 34.52 26.8C34.52 23.2 33.992 20.104 32.936 17.512C31.88 14.92 30.128 12.928 27.68 11.536C25.232 10.144 21.896 9.448 17.672 9.448H10.112V44.08ZM52.0835 52V1.6H63.0275L79.0835 33.568L94.9235 1.6H105.868V52H96.6515V17.224L82.6115 44.8H75.3395L61.2995 17.224V52H52.0835ZM150.01 52.864C146.314 52.864 143.05 52.24 140.218 50.992C137.386 49.696 135.154 47.872 133.522 45.52C131.89 43.12 131.05 40.216 131.002 36.808H140.722C140.818 39.16 141.658 41.152 143.242 42.784C144.874 44.368 147.106 45.16 149.938 45.16C152.386 45.16 154.33 44.584 155.77 43.432C157.21 42.232 157.93 40.648 157.93 38.68C157.93 36.616 157.282 35.008 155.986 33.856C154.738 32.704 153.058 31.768 150.946 31.048C148.834 30.328 146.578 29.56 144.178 28.744C140.29 27.4 137.314 25.672 135.25 23.56C133.234 21.448 132.226 18.64 132.226 15.136C132.178 12.16 132.874 9.616 134.314 7.504C135.802 5.344 137.818 3.688 140.362 2.536C142.906 1.336 145.834 0.735999 149.146 0.735999C152.506 0.735999 155.458 1.336 158.002 2.536C160.594 3.736 162.61 5.416 164.05 7.576C165.538 9.736 166.33 12.304 166.426 15.28H156.562C156.514 13.504 155.818 11.944 154.474 10.6C153.178 9.208 151.354 8.512 149.002 8.512C146.986 8.464 145.282 8.968 143.89 10.024C142.546 11.032 141.874 12.52 141.874 14.488C141.874 16.168 142.402 17.512 143.458 18.52C144.514 19.48 145.954 20.296 147.778 20.968C149.602 21.64 151.69 22.36 154.042 23.128C156.538 23.992 158.818 25 160.882 26.152C162.946 27.304 164.602 28.84 165.85 30.76C167.098 32.632 167.722 35.056 167.722 38.032C167.722 40.672 167.05 43.12 165.706 45.376C164.362 47.632 162.37 49.456 159.73 50.848C157.09 52.192 153.85 52.864 150.01 52.864ZM187.859 52.864C184.787 52.864 182.267 52.384 180.299 51.424C178.331 50.416 176.867 49.096 175.907 47.464C174.947 45.832 174.467 44.032 174.467 42.064C174.467 38.752 175.763 36.064 178.355 34C180.947 31.936 184.835 30.904 190.019 30.904H199.091V30.04C199.091 27.592 198.395 25.792 197.003 24.64C195.611 23.488 193.883 22.912 191.819 22.912C189.947 22.912 188.315 23.368 186.923 24.28C185.531 25.144 184.667 26.44 184.331 28.168H175.331C175.571 25.576 176.435 23.32 177.923 21.4C179.459 19.48 181.427 18.016 183.827 17.008C186.227 15.952 188.915 15.424 191.891 15.424C196.979 15.424 200.987 16.696 203.915 19.24C206.843 21.784 208.307 25.384 208.307 30.04V52H200.459L199.595 46.24C198.539 48.16 197.051 49.744 195.131 50.992C193.259 52.24 190.835 52.864 187.859 52.864ZM189.947 45.664C192.587 45.664 194.627 44.8 196.067 43.072C197.555 41.344 198.491 39.208 198.875 36.664H191.027C188.579 36.664 186.827 37.12 185.771 38.032C184.715 38.896 184.187 39.976 184.187 41.272C184.187 42.664 184.715 43.744 185.771 44.512C186.827 45.28 188.219 45.664 189.947 45.664ZM217.102 52V16.288H225.238L225.958 22.336C227.062 20.224 228.646 18.544 230.71 17.296C232.822 16.048 235.294 15.424 238.126 15.424C242.542 15.424 245.974 16.816 248.422 19.6C250.87 22.384 252.094 26.464 252.094 31.84V52H242.878V32.704C242.878 29.632 242.254 27.28 241.006 25.648C239.758 24.016 237.814 23.2 235.174 23.2C232.582 23.2 230.446 24.112 228.766 25.936C227.134 27.76 226.318 30.304 226.318 33.568V52H217.102ZM275.667 52.864C272.499 52.864 269.715 52.36 267.315 51.352C264.915 50.296 262.995 48.856 261.555 47.032C260.115 45.208 259.251 43.096 258.963 40.696H268.251C268.539 42.088 269.307 43.288 270.555 44.296C271.851 45.256 273.507 45.736 275.523 45.736C277.539 45.736 279.003 45.328 279.915 44.512C280.875 43.696 281.355 42.76 281.355 41.704C281.355 40.168 280.683 39.136 279.339 38.608C277.995 38.032 276.123 37.48 273.723 36.952C272.187 36.616 270.627 36.208 269.043 35.728C267.459 35.248 265.995 34.648 264.651 33.928C263.355 33.16 262.299 32.2 261.483 31.048C260.667 29.848 260.259 28.384 260.259 26.656C260.259 23.488 261.507 20.824 264.003 18.664C266.547 16.504 270.099 15.424 274.659 15.424C278.883 15.424 282.243 16.408 284.739 18.376C287.283 20.344 288.795 23.056 289.275 26.512H280.563C280.035 23.872 278.043 22.552 274.587 22.552C272.859 22.552 271.515 22.888 270.555 23.56C269.643 24.232 269.187 25.072 269.187 26.08C269.187 27.136 269.883 27.976 271.275 28.6C272.667 29.224 274.515 29.8 276.819 30.328C279.315 30.904 281.595 31.552 283.659 32.272C285.771 32.944 287.451 33.976 288.699 35.368C289.947 36.712 290.571 38.656 290.571 41.2C290.619 43.408 290.043 45.4 288.843 47.176C287.643 48.952 285.915 50.344 283.659 51.352C281.403 52.36 278.739 52.864 275.667 52.864Z" fill="#101010"/>
</svg>
