<svg width="330" height="129" viewBox="0 0 330 129" fill="none" xmlns="http://www.w3.org/2000/svg">
<path d="M5.616 26.288C4.624 26.288 3.8 26.12 3.144 25.784C2.488 25.448 2 25 1.68 24.44C1.36 23.88 1.2 23.272 1.2 22.616C1.2 21.4 1.664 20.464 2.592 19.808C3.52 19.152 4.784 18.824 6.384 18.824H9.6V18.68C9.6 17.64 9.328 16.856 8.784 16.328C8.24 15.784 7.512 15.512 6.6 15.512C5.816 15.512 5.136 15.712 4.56 16.112C4 16.496 3.648 17.064 3.504 17.816H1.44C1.52 16.952 1.808 16.224 2.304 15.632C2.816 15.04 3.448 14.592 4.2 14.288C4.952 13.968 5.752 13.808 6.6 13.808C8.264 13.808 9.512 14.256 10.344 15.152C11.192 16.032 11.616 17.208 11.616 18.68V26H9.816L9.696 23.864C9.36 24.536 8.864 25.112 8.208 25.592C7.568 26.056 6.704 26.288 5.616 26.288ZM5.928 24.584C6.696 24.584 7.352 24.384 7.896 23.984C8.456 23.584 8.88 23.064 9.168 22.424C9.456 21.784 9.6 21.112 9.6 20.408V20.384H6.552C5.368 20.384 4.528 20.592 4.032 21.008C3.552 21.408 3.312 21.912 3.312 22.52C3.312 23.144 3.536 23.648 3.984 24.032C4.448 24.4 5.096 24.584 5.928 24.584ZM21.0004 26.288C20.0244 26.288 19.1524 26.088 18.3844 25.688C17.6324 25.288 17.0564 24.728 16.6564 24.008L16.4644 26H14.6404V8.72H16.6564V16.064C17.0404 15.488 17.5844 14.968 18.2884 14.504C19.0084 14.04 19.9204 13.808 21.0244 13.808C22.2084 13.808 23.2404 14.08 24.1204 14.624C25.0004 15.168 25.6804 15.912 26.1604 16.856C26.6564 17.8 26.9044 18.872 26.9044 20.072C26.9044 21.272 26.6564 22.344 26.1604 23.288C25.6804 24.216 24.9924 24.952 24.0964 25.496C23.2164 26.024 22.1844 26.288 21.0004 26.288ZM20.7844 24.536C21.5844 24.536 22.2884 24.352 22.8964 23.984C23.5044 23.6 23.9844 23.072 24.3364 22.4C24.6884 21.728 24.8644 20.944 24.8644 20.048C24.8644 19.152 24.6884 18.368 24.3364 17.696C23.9844 17.024 23.5044 16.504 22.8964 16.136C22.2884 15.752 21.5844 15.56 20.7844 15.56C19.9844 15.56 19.2804 15.752 18.6724 16.136C18.0644 16.504 17.5844 17.024 17.2324 17.696C16.8804 18.368 16.7044 19.152 16.7044 20.048C16.7044 20.944 16.8804 21.728 17.2324 22.4C17.5844 23.072 18.0644 23.6 18.6724 23.984C19.2804 24.352 19.9844 24.536 20.7844 24.536ZM35.1827 26.288C34.0467 26.288 33.0227 26.032 32.1107 25.52C31.2147 24.992 30.5027 24.264 29.9747 23.336C29.4627 22.392 29.2067 21.296 29.2067 20.048C29.2067 18.8 29.4627 17.712 29.9747 16.784C30.5027 15.84 31.2147 15.112 32.1107 14.6C33.0227 14.072 34.0467 13.808 35.1827 13.808C36.5907 13.808 37.7747 14.176 38.7347 14.912C39.7107 15.648 40.3267 16.632 40.5827 17.864H38.5187C38.3587 17.128 37.9667 16.56 37.3427 16.16C36.7187 15.744 35.9907 15.536 35.1587 15.536C34.4867 15.536 33.8547 15.704 33.2627 16.04C32.6707 16.376 32.1907 16.88 31.8227 17.552C31.4547 18.224 31.2707 19.056 31.2707 20.048C31.2707 21.04 31.4547 21.872 31.8227 22.544C32.1907 23.216 32.6707 23.728 33.2627 24.08C33.8547 24.416 34.4867 24.584 35.1587 24.584C35.9907 24.584 36.7187 24.384 37.3427 23.984C37.9667 23.568 38.3587 22.984 38.5187 22.232H40.5827C40.3427 23.432 39.7347 24.408 38.7587 25.16C37.7827 25.912 36.5907 26.288 35.1827 26.288ZM48.7982 26.288C47.6142 26.288 46.5742 26.016 45.6782 25.472C44.7982 24.928 44.1102 24.184 43.6142 23.24C43.1342 22.296 42.8942 21.224 42.8942 20.024C42.8942 18.824 43.1422 17.76 43.6382 16.832C44.1342 15.888 44.8222 15.152 45.7022 14.624C46.5822 14.08 47.6222 13.808 48.8222 13.808C49.7982 13.808 50.6622 14.008 51.4142 14.408C52.1662 14.808 52.7502 15.368 53.1662 16.088V8.72H55.1822V26H53.3582L53.1662 24.032C52.7822 24.608 52.2302 25.128 51.5102 25.592C50.7902 26.056 49.8862 26.288 48.7982 26.288ZM49.0142 24.536C49.8142 24.536 50.5182 24.352 51.1262 23.984C51.7502 23.6 52.2302 23.072 52.5662 22.4C52.9182 21.728 53.0942 20.944 53.0942 20.048C53.0942 19.152 52.9182 18.368 52.5662 17.696C52.2302 17.024 51.7502 16.504 51.1262 16.136C50.5182 15.752 49.8142 15.56 49.0142 15.56C48.2302 15.56 47.5262 15.752 46.9022 16.136C46.2942 16.504 45.8142 17.024 45.4622 17.696C45.1262 18.368 44.9582 19.152 44.9582 20.048C44.9582 20.944 45.1262 21.728 45.4622 22.4C45.8142 23.072 46.2942 23.6 46.9022 23.984C47.5262 24.352 48.2302 24.536 49.0142 24.536ZM63.8205 26.288C62.6845 26.288 61.6765 26.032 60.7965 25.52C59.9165 24.992 59.2205 24.264 58.7085 23.336C58.2125 22.408 57.9645 21.312 57.9645 20.048C57.9645 18.8 58.2125 17.712 58.7085 16.784C59.2045 15.84 59.8925 15.112 60.7725 14.6C61.6685 14.072 62.7005 13.808 63.8685 13.808C65.0205 13.808 66.0125 14.072 66.8445 14.6C67.6925 15.112 68.3405 15.792 68.7885 16.64C69.2365 17.488 69.4605 18.4 69.4605 19.376C69.4605 19.552 69.4525 19.728 69.4365 19.904C69.4365 20.08 69.4365 20.28 69.4365 20.504H59.9565C60.0045 21.416 60.2125 22.176 60.5805 22.784C60.9645 23.376 61.4365 23.824 61.9965 24.128C62.5725 24.432 63.1805 24.584 63.8205 24.584C64.6525 24.584 65.3485 24.392 65.9085 24.008C66.4685 23.624 66.8765 23.104 67.1325 22.448H69.1245C68.8045 23.552 68.1885 24.472 67.2765 25.208C66.3805 25.928 65.2285 26.288 63.8205 26.288ZM63.8205 15.512C62.8605 15.512 62.0045 15.808 61.2525 16.4C60.5165 16.976 60.0925 17.824 59.9805 18.944H67.4685C67.4205 17.872 67.0525 17.032 66.3645 16.424C65.6765 15.816 64.8285 15.512 63.8205 15.512ZM72.7806 26V15.8H70.9806V14.096H72.7806V12.032C72.7806 10.88 73.0686 10.04 73.6446 9.512C74.2206 8.984 75.0606 8.72 76.1646 8.72H77.3646V10.448H76.4766C75.8686 10.448 75.4366 10.576 75.1806 10.832C74.9246 11.072 74.7966 11.488 74.7966 12.08V14.096H77.7246V15.8H74.7966V26H72.7806ZM83.8678 22.256C83.1958 22.256 82.5798 22.168 82.0198 21.992L80.8198 23.12C80.9958 23.248 81.2118 23.36 81.4678 23.456C81.7398 23.536 82.1238 23.616 82.6198 23.696C83.1158 23.76 83.8118 23.832 84.7078 23.912C86.3078 24.024 87.4518 24.392 88.1398 25.016C88.8278 25.64 89.1718 26.456 89.1718 27.464C89.1718 28.152 88.9798 28.808 88.5958 29.432C88.2278 30.056 87.6518 30.568 86.8678 30.968C86.0998 31.368 85.1078 31.568 83.8918 31.568C82.8198 31.568 81.8678 31.424 81.0358 31.136C80.2038 30.864 79.5558 30.44 79.0918 29.864C78.6278 29.304 78.3958 28.592 78.3958 27.728C78.3958 27.28 78.5158 26.792 78.7558 26.264C78.9958 25.752 79.4438 25.264 80.0998 24.8C79.7478 24.656 79.4438 24.504 79.1878 24.344C78.9478 24.168 78.7238 23.976 78.5158 23.768V23.216L80.5558 21.2C79.6118 20.4 79.1398 19.344 79.1398 18.032C79.1398 17.248 79.3238 16.536 79.6918 15.896C80.0598 15.256 80.5958 14.752 81.2998 14.384C82.0038 14 82.8598 13.808 83.8678 13.808C84.5558 13.808 85.1798 13.904 85.7398 14.096H90.1318V15.608L87.8998 15.704C88.3638 16.376 88.5958 17.152 88.5958 18.032C88.5958 18.816 88.4038 19.528 88.0198 20.168C87.6518 20.808 87.1158 21.32 86.4118 21.704C85.7238 22.072 84.8758 22.256 83.8678 22.256ZM83.8678 20.6C84.7158 20.6 85.3878 20.384 85.8838 19.952C86.3958 19.504 86.6518 18.864 86.6518 18.032C86.6518 17.216 86.3958 16.592 85.8838 16.16C85.3878 15.712 84.7158 15.488 83.8678 15.488C83.0038 15.488 82.3158 15.712 81.8038 16.16C81.3078 16.592 81.0598 17.216 81.0598 18.032C81.0598 18.864 81.3078 19.504 81.8038 19.952C82.3158 20.384 83.0038 20.6 83.8678 20.6ZM80.3638 27.536C80.3638 28.336 80.6998 28.928 81.3718 29.312C82.0438 29.712 82.8838 29.912 83.8918 29.912C84.8838 29.912 85.6758 29.696 86.2678 29.264C86.8758 28.832 87.1798 28.256 87.1798 27.536C87.1798 27.024 86.9718 26.576 86.5558 26.192C86.1398 25.824 85.3718 25.608 84.2518 25.544C83.3718 25.48 82.6118 25.4 81.9718 25.304C81.3158 25.656 80.8838 26.032 80.6758 26.432C80.4678 26.848 80.3638 27.216 80.3638 27.536ZM92.406 26V8.72H94.422V16.136C94.822 15.4 95.39 14.832 96.126 14.432C96.862 14.016 97.662 13.808 98.526 13.808C99.902 13.808 101.006 14.24 101.838 15.104C102.67 15.952 103.086 17.264 103.086 19.04V26H101.094V19.256C101.094 16.776 100.094 15.536 98.094 15.536C97.054 15.536 96.182 15.912 95.478 16.664C94.774 17.4 94.422 18.456 94.422 19.832V26H92.406ZM107.364 11.456C106.964 11.456 106.628 11.328 106.356 11.072C106.1 10.8 105.972 10.464 105.972 10.064C105.972 9.68 106.1 9.36 106.356 9.104C106.628 8.848 106.964 8.72 107.364 8.72C107.748 8.72 108.076 8.848 108.348 9.104C108.62 9.36 108.756 9.68 108.756 10.064C108.756 10.464 108.62 10.8 108.348 11.072C108.076 11.328 107.748 11.456 107.364 11.456ZM106.356 26V14.096H108.372V26H106.356ZM113.203 11.456C112.819 11.456 112.491 11.328 112.219 11.072C111.947 10.8 111.811 10.464 111.811 10.064C111.811 9.68 111.947 9.36 112.219 9.104C112.491 8.848 112.819 8.72 113.203 8.72C113.587 8.72 113.907 8.848 114.163 9.104C114.435 9.36 114.571 9.68 114.571 10.064C114.571 10.464 114.435 10.8 114.163 11.072C113.907 11.328 113.587 11.456 113.203 11.456ZM109.555 31.28V29.552H110.491C111.083 29.552 111.507 29.424 111.763 29.168C112.035 28.928 112.171 28.512 112.171 27.92V14.096H114.187V27.968C114.187 29.12 113.899 29.96 113.323 30.488C112.747 31.016 111.907 31.28 110.803 31.28H109.555ZM117.695 26V8.72H119.711V19.112L124.583 14.096H127.055L121.775 19.472L127.727 26H125.159L119.711 19.832V26H117.695ZM129.789 26V8.72H131.805V26H129.789ZM135.109 26V14.096H136.933L137.077 15.824C137.461 15.184 137.973 14.688 138.613 14.336C139.253 13.984 139.973 13.808 140.773 13.808C141.717 13.808 142.525 14 143.197 14.384C143.885 14.768 144.413 15.352 144.781 16.136C145.197 15.416 145.765 14.848 146.485 14.432C147.221 14.016 148.013 13.808 148.861 13.808C150.285 13.808 151.421 14.24 152.269 15.104C153.117 15.952 153.541 17.264 153.541 19.04V26H151.549V19.256C151.549 18.024 151.301 17.096 150.805 16.472C150.309 15.848 149.597 15.536 148.669 15.536C147.709 15.536 146.909 15.912 146.269 16.664C145.645 17.4 145.333 18.456 145.333 19.832V26H143.317V19.256C143.317 18.024 143.069 17.096 142.573 16.472C142.077 15.848 141.365 15.536 140.437 15.536C139.493 15.536 138.701 15.912 138.061 16.664C137.437 17.4 137.125 18.456 137.125 19.832V26H135.109ZM156.578 26V14.096H158.402L158.522 16.232C158.906 15.48 159.458 14.888 160.178 14.456C160.898 14.024 161.714 13.808 162.626 13.808C164.034 13.808 165.154 14.24 165.986 15.104C166.834 15.952 167.258 17.264 167.258 19.04V26H165.242V19.256C165.242 16.776 164.218 15.536 162.17 15.536C161.146 15.536 160.29 15.912 159.602 16.664C158.93 17.4 158.594 18.456 158.594 19.832V26H156.578ZM175.736 26.288C174.616 26.288 173.608 26.032 172.712 25.52C171.816 25.008 171.104 24.288 170.576 23.36C170.064 22.416 169.808 21.312 169.808 20.048C169.808 18.784 170.072 17.688 170.6 16.76C171.128 15.816 171.84 15.088 172.736 14.576C173.648 14.064 174.664 13.808 175.784 13.808C176.904 13.808 177.912 14.064 178.808 14.576C179.704 15.088 180.408 15.816 180.92 16.76C181.448 17.688 181.712 18.784 181.712 20.048C181.712 21.312 181.448 22.416 180.92 23.36C180.392 24.288 179.672 25.008 178.76 25.52C177.864 26.032 176.856 26.288 175.736 26.288ZM175.736 24.56C176.424 24.56 177.064 24.392 177.656 24.056C178.248 23.72 178.728 23.216 179.096 22.544C179.464 21.872 179.648 21.04 179.648 20.048C179.648 19.056 179.464 18.224 179.096 17.552C178.744 16.88 178.272 16.376 177.68 16.04C177.088 15.704 176.456 15.536 175.784 15.536C175.096 15.536 174.456 15.704 173.864 16.04C173.272 16.376 172.792 16.88 172.424 17.552C172.056 18.224 171.872 19.056 171.872 20.048C171.872 21.04 172.056 21.872 172.424 22.544C172.792 23.216 173.264 23.72 173.84 24.056C174.432 24.392 175.064 24.56 175.736 24.56ZM184.515 31.28V14.096H186.339L186.531 16.064C186.915 15.488 187.459 14.968 188.163 14.504C188.883 14.04 189.795 13.808 190.899 13.808C192.083 13.808 193.115 14.08 193.995 14.624C194.875 15.168 195.555 15.912 196.035 16.856C196.531 17.8 196.779 18.872 196.779 20.072C196.779 21.272 196.531 22.344 196.035 23.288C195.555 24.216 194.867 24.952 193.971 25.496C193.091 26.024 192.059 26.288 190.875 26.288C189.899 26.288 189.027 26.088 188.259 25.688C187.507 25.288 186.931 24.728 186.531 24.008V31.28H184.515ZM190.659 24.536C191.459 24.536 192.163 24.352 192.771 23.984C193.379 23.6 193.859 23.072 194.211 22.4C194.563 21.728 194.739 20.944 194.739 20.048C194.739 19.152 194.563 18.368 194.211 17.696C193.859 17.024 193.379 16.504 192.771 16.136C192.163 15.752 191.459 15.56 190.659 15.56C189.859 15.56 189.155 15.752 188.547 16.136C187.939 16.504 187.459 17.024 187.107 17.696C186.755 18.368 186.579 19.152 186.579 20.048C186.579 20.944 186.755 21.728 187.107 22.4C187.459 23.072 187.939 23.6 188.547 23.984C189.155 24.352 189.859 24.536 190.659 24.536ZM209.354 31.28V24.032C208.97 24.608 208.418 25.128 207.698 25.592C206.978 26.056 206.074 26.288 204.986 26.288C203.802 26.288 202.762 26.016 201.866 25.472C200.986 24.928 200.298 24.184 199.802 23.24C199.322 22.296 199.082 21.224 199.082 20.024C199.082 18.824 199.33 17.76 199.826 16.832C200.322 15.888 201.01 15.152 201.89 14.624C202.77 14.08 203.81 13.808 205.01 13.808C205.986 13.808 206.85 14.008 207.602 14.408C208.354 14.808 208.938 15.368 209.354 16.088L209.546 14.096H211.37V31.28H209.354ZM205.202 24.536C206.002 24.536 206.706 24.352 207.314 23.984C207.938 23.6 208.418 23.072 208.754 22.4C209.106 21.728 209.282 20.944 209.282 20.048C209.282 19.152 209.106 18.368 208.754 17.696C208.418 17.024 207.938 16.504 207.314 16.136C206.706 15.752 206.002 15.56 205.202 15.56C204.418 15.56 203.714 15.752 203.09 16.136C202.482 16.504 202.002 17.024 201.65 17.696C201.314 18.368 201.146 19.152 201.146 20.048C201.146 20.944 201.314 21.728 201.65 22.4C202.002 23.072 202.482 23.6 203.09 23.984C203.714 24.352 204.418 24.536 205.202 24.536ZM214.656 26V14.096H216.48L216.648 16.376C217.016 15.592 217.576 14.968 218.328 14.504C219.08 14.04 220.008 13.808 221.112 13.808V15.92H220.56C219.856 15.92 219.208 16.048 218.616 16.304C218.024 16.544 217.552 16.96 217.2 17.552C216.848 18.144 216.672 18.96 216.672 20V26H214.656ZM227.935 26.288C226.511 26.288 225.327 25.928 224.383 25.208C223.439 24.488 222.887 23.512 222.727 22.28H224.791C224.919 22.904 225.247 23.448 225.775 23.912C226.319 24.36 227.047 24.584 227.959 24.584C228.807 24.584 229.431 24.408 229.831 24.056C230.231 23.688 230.431 23.256 230.431 22.76C230.431 22.04 230.167 21.56 229.639 21.32C229.127 21.08 228.399 20.864 227.455 20.672C226.815 20.544 226.175 20.36 225.535 20.12C224.895 19.88 224.359 19.544 223.927 19.112C223.495 18.664 223.279 18.08 223.279 17.36C223.279 16.32 223.663 15.472 224.431 14.816C225.215 14.144 226.271 13.808 227.599 13.808C228.863 13.808 229.895 14.128 230.695 14.768C231.511 15.392 231.983 16.288 232.111 17.456H230.119C230.039 16.848 229.775 16.376 229.327 16.04C228.895 15.688 228.311 15.512 227.575 15.512C226.855 15.512 226.295 15.664 225.895 15.968C225.511 16.272 225.319 16.672 225.319 17.168C225.319 17.648 225.567 18.024 226.063 18.296C226.575 18.568 227.263 18.8 228.127 18.992C228.863 19.152 229.559 19.352 230.215 19.592C230.887 19.816 231.431 20.16 231.847 20.624C232.279 21.072 232.495 21.728 232.495 22.592C232.511 23.664 232.103 24.552 231.271 25.256C230.455 25.944 229.343 26.288 227.935 26.288ZM239.54 26C238.452 26 237.596 25.736 236.972 25.208C236.348 24.68 236.036 23.728 236.036 22.352V15.8H233.972V14.096H236.036L236.3 11.24H238.052V14.096H241.556V15.8H238.052V22.352C238.052 23.104 238.204 23.616 238.508 23.888C238.812 24.144 239.348 24.272 240.116 24.272H241.364V26H239.54ZM248.461 26.288C247.053 26.288 245.933 25.864 245.101 25.016C244.269 24.152 243.853 22.832 243.853 21.056V14.096H245.869V20.84C245.869 23.32 246.885 24.56 248.917 24.56C249.957 24.56 250.813 24.192 251.485 23.456C252.173 22.704 252.517 21.64 252.517 20.264V14.096H254.533V26H252.709L252.565 23.864C252.197 24.616 251.645 25.208 250.909 25.64C250.189 26.072 249.373 26.288 248.461 26.288ZM261.283 26L256.771 14.096H258.883L262.459 24.056L266.059 14.096H268.123L263.611 26H261.283ZM272.767 26L269.287 14.096H271.303L273.823 23.432L276.607 14.096H278.887L281.695 23.432L284.191 14.096H286.231L282.751 26H280.687L277.759 16.184L274.831 26H272.767ZM287.261 26L291.389 20.048L287.261 14.096H289.445L292.781 19.016L296.141 14.096H298.301L294.173 20.048L298.301 26H296.141L292.781 21.08L289.445 26H287.261ZM301.71 31.28L304.662 24.848H303.966L299.238 14.096H301.422L305.358 23.36L309.534 14.096H311.622L303.822 31.28H301.71ZM312.934 26V24.344L319.558 15.776H313.054V14.096H321.814V15.752L315.19 24.32H321.934V26H312.934Z" fill="#101010"/>
<path d="M0.6 64L5.76 50H7.54L12.68 64H10.9L9.62 60.4H3.66L2.36 64H0.6ZM4.16 59.04H9.12L6.64 52.12L4.16 59.04ZM14.7613 64V50H19.6813C20.6679 50 21.4813 50.16 22.1213 50.48C22.7746 50.7867 23.2613 51.2133 23.5813 51.76C23.9013 52.2933 24.0613 52.8933 24.0613 53.56C24.0613 54.4667 23.8146 55.18 23.3213 55.7C22.8413 56.22 22.2613 56.58 21.5813 56.78C22.1013 56.8733 22.5746 57.08 23.0013 57.4C23.4279 57.72 23.7613 58.12 24.0013 58.6C24.2546 59.08 24.3813 59.6067 24.3813 60.18C24.3813 60.8867 24.2079 61.5333 23.8613 62.12C23.5146 62.6933 23.0013 63.1533 22.3213 63.5C21.6413 63.8333 20.8146 64 19.8413 64H14.7613ZM16.4413 56.12H19.5613C20.4546 56.12 21.1413 55.9133 21.6213 55.5C22.1013 55.0733 22.3413 54.4867 22.3413 53.74C22.3413 53.0333 22.1013 52.4667 21.6213 52.04C21.1546 51.6133 20.4479 51.4 19.5013 51.4H16.4413V56.12ZM16.4413 62.6H19.6613C20.6213 62.6 21.3613 62.38 21.8813 61.94C22.4013 61.4867 22.6613 60.86 22.6613 60.06C22.6613 59.2733 22.3879 58.6467 21.8413 58.18C21.2946 57.7 20.5546 57.46 19.6213 57.46H16.4413V62.6ZM32.9325 64.24C31.5592 64.24 30.3725 63.94 29.3725 63.34C28.3858 62.7267 27.6192 61.88 27.0725 60.8C26.5258 59.7067 26.2525 58.44 26.2525 57C26.2525 55.5733 26.5258 54.32 27.0725 53.24C27.6192 52.1467 28.3858 51.2933 29.3725 50.68C30.3725 50.0667 31.5592 49.76 32.9325 49.76C34.5325 49.76 35.8325 50.1467 36.8325 50.92C37.8458 51.68 38.4925 52.7467 38.7725 54.12H36.9125C36.6992 53.2533 36.2592 52.56 35.5925 52.04C34.9392 51.5067 34.0525 51.24 32.9325 51.24C31.9325 51.24 31.0592 51.4733 30.3125 51.94C29.5658 52.3933 28.9858 53.0533 28.5725 53.92C28.1725 54.7733 27.9725 55.8 27.9725 57C27.9725 58.2 28.1725 59.2333 28.5725 60.1C28.9858 60.9533 29.5658 61.6133 30.3125 62.08C31.0592 62.5333 31.9325 62.76 32.9325 62.76C34.0525 62.76 34.9392 62.5067 35.5925 62C36.2592 61.48 36.6992 60.7933 36.9125 59.94H38.7725C38.4925 61.2867 37.8458 62.34 36.8325 63.1C35.8325 63.86 34.5325 64.24 32.9325 64.24ZM41.187 64V50H45.487C47.9537 50 49.767 50.6267 50.927 51.88C52.1004 53.1333 52.687 54.8533 52.687 57.04C52.687 59.1867 52.1004 60.8867 50.927 62.14C49.767 63.38 47.9537 64 45.487 64H41.187ZM42.867 62.6H45.447C46.807 62.6 47.887 62.38 48.687 61.94C49.5004 61.4867 50.0804 60.8467 50.427 60.02C50.7737 59.18 50.947 58.1867 50.947 57.04C50.947 55.8667 50.7737 54.86 50.427 54.02C50.0804 53.18 49.5004 52.5333 48.687 52.08C47.887 51.6267 46.807 51.4 45.447 51.4H42.867V62.6ZM55.1128 64V50H63.7728V51.38H56.7928V56.26H63.1728V57.62H56.7928V62.62H63.7728V64H55.1128ZM66.4019 64V50H74.9219V51.38H68.0819V56.3H73.9019V57.66H68.0819V64H66.4019ZM83.1055 64.24C81.7988 64.24 80.6521 63.94 79.6655 63.34C78.6788 62.7267 77.9121 61.88 77.3655 60.8C76.8188 59.7067 76.5455 58.4467 76.5455 57.02C76.5455 55.5933 76.8188 54.3333 77.3655 53.24C77.9255 52.1467 78.7121 51.2933 79.7255 50.68C80.7521 50.0667 81.9588 49.76 83.3455 49.76C84.9188 49.76 86.2255 50.14 87.2655 50.9C88.3188 51.66 88.9988 52.7067 89.3055 54.04H87.3655C87.1788 53.2 86.7321 52.5333 86.0255 52.04C85.3321 51.5467 84.4388 51.3 83.3455 51.3C82.3188 51.3 81.4255 51.5333 80.6655 52C79.9055 52.4533 79.3121 53.1067 78.8855 53.96C78.4721 54.8133 78.2655 55.8333 78.2655 57.02C78.2655 58.2067 78.4721 59.2267 78.8855 60.08C79.2988 60.9333 79.8721 61.5933 80.6055 62.06C81.3388 62.5133 82.1921 62.74 83.1655 62.74C84.6588 62.74 85.7855 62.3067 86.5455 61.44C87.3055 60.56 87.7388 59.36 87.8455 57.84H83.8055V56.52H89.5655V64H88.0255L87.8855 61.7C87.3788 62.5133 86.7588 63.14 86.0255 63.58C85.2921 64.02 84.3188 64.24 83.1055 64.24ZM92.2222 64V50H93.9022V56.18H101.162V50H102.842V64H101.162V57.56H93.9022V64H92.2222ZM105.796 64V50H107.476V64H105.796ZM113.565 64.24C112.298 64.24 111.305 63.8867 110.585 63.18C109.865 62.4733 109.505 61.4933 109.505 60.24H111.205C111.205 60.9467 111.378 61.54 111.725 62.02C112.072 62.5 112.678 62.74 113.545 62.74C114.385 62.74 114.965 62.5067 115.285 62.04C115.618 61.5733 115.785 60.9933 115.785 60.3V50H117.465V60.3C117.465 61.54 117.118 62.5067 116.425 63.2C115.745 63.8933 114.792 64.24 113.565 64.24ZM120.425 64V50H122.105V56.34L127.945 50H130.065L124.865 55.58L130.145 64H128.105L123.665 56.88L122.105 58.54V64H120.425ZM132.066 64V50H133.746V62.66H140.266V64H132.066ZM142.574 64V50H144.534L149.574 59.76L154.574 50H156.554V64H154.874V53L150.194 62H148.934L144.254 53.02V64H142.574ZM159.507 64V50H161.187L168.647 61.22V50H170.327V64H168.647L161.187 52.78V64H159.507ZM179.656 64.24C178.283 64.24 177.076 63.94 176.036 63.34C175.01 62.7267 174.203 61.8733 173.616 60.78C173.043 59.6867 172.756 58.4267 172.756 57C172.756 55.5733 173.043 54.32 173.616 53.24C174.203 52.1467 175.01 51.2933 176.036 50.68C177.076 50.0667 178.283 49.76 179.656 49.76C181.043 49.76 182.25 50.0667 183.276 50.68C184.316 51.2933 185.123 52.1467 185.696 53.24C186.27 54.32 186.556 55.5733 186.556 57C186.556 58.4267 186.27 59.6867 185.696 60.78C185.123 61.8733 184.316 62.7267 183.276 63.34C182.25 63.94 181.043 64.24 179.656 64.24ZM179.656 62.76C180.683 62.76 181.583 62.5333 182.356 62.08C183.143 61.6133 183.75 60.9533 184.176 60.1C184.616 59.2333 184.836 58.2 184.836 57C184.836 55.8 184.616 54.7733 184.176 53.92C183.75 53.0667 183.143 52.4133 182.356 51.96C181.583 51.4933 180.683 51.26 179.656 51.26C178.63 51.26 177.723 51.4933 176.936 51.96C176.163 52.4133 175.556 53.0667 175.116 53.92C174.69 54.7733 174.476 55.8 174.476 57C174.476 58.2 174.69 59.2333 175.116 60.1C175.556 60.9533 176.163 61.6133 176.936 62.08C177.723 62.5333 178.63 62.76 179.656 62.76ZM188.98 64V50H193.58C194.673 50 195.573 50.18 196.28 50.54C196.987 50.9 197.507 51.3867 197.84 52C198.187 52.6133 198.36 53.3067 198.36 54.08C198.36 54.84 198.193 55.5267 197.86 56.14C197.527 56.7533 197.007 57.2467 196.3 57.62C195.593 57.98 194.687 58.16 193.58 58.16H190.66V64H188.98ZM190.66 56.74H193.54C194.66 56.74 195.453 56.5067 195.92 56.04C196.4 55.56 196.64 54.9067 196.64 54.08C196.64 53.24 196.4 52.5867 195.92 52.12C195.453 51.64 194.66 51.4 193.54 51.4H190.66V56.74ZM206.922 64.24C205.549 64.24 204.342 63.94 203.302 63.34C202.275 62.7267 201.469 61.8733 200.882 60.78C200.309 59.6867 200.022 58.4267 200.022 57C200.022 55.5733 200.309 54.32 200.882 53.24C201.469 52.1467 202.275 51.2933 203.302 50.68C204.342 50.0667 205.549 49.76 206.922 49.76C208.309 49.76 209.515 50.0667 210.542 50.68C211.582 51.2933 212.389 52.1467 212.962 53.24C213.535 54.32 213.822 55.5733 213.822 57C213.822 58.4267 213.535 59.6867 212.962 60.78C212.389 61.86 211.602 62.7 210.602 63.3L214.142 66.7H211.962L209.122 63.94C208.442 64.14 207.709 64.24 206.922 64.24ZM206.922 62.76C207.949 62.76 208.849 62.5333 209.622 62.08C210.409 61.6133 211.015 60.9533 211.442 60.1C211.882 59.2333 212.102 58.2 212.102 57C212.102 55.8 211.882 54.7733 211.442 53.92C211.015 53.0667 210.409 52.4133 209.622 51.96C208.849 51.4933 207.949 51.26 206.922 51.26C205.895 51.26 204.989 51.4933 204.202 51.96C203.429 52.4133 202.822 53.0667 202.382 53.92C201.955 54.7733 201.742 55.8 201.742 57C201.742 58.2 201.955 59.2333 202.382 60.1C202.822 60.9533 203.429 61.6133 204.202 62.08C204.989 62.5333 205.895 62.76 206.922 62.76ZM216.343 64V50H220.863C221.957 50 222.85 50.18 223.543 50.54C224.237 50.9 224.75 51.3933 225.083 52.02C225.417 52.6467 225.583 53.34 225.583 54.1C225.583 54.98 225.343 55.7733 224.863 56.48C224.397 57.1867 223.663 57.6867 222.663 57.98L225.723 64H223.743L220.903 58.22H220.783H218.023V64H216.343ZM218.023 56.9H220.743C221.823 56.9 222.61 56.64 223.103 56.12C223.597 55.6 223.843 54.9333 223.843 54.12C223.843 53.2933 223.597 52.64 223.103 52.16C222.623 51.6667 221.83 51.42 220.723 51.42H218.023V56.9ZM232.659 64.24C231.632 64.24 230.739 64.0533 229.979 63.68C229.219 63.3067 228.632 62.7867 228.219 62.12C227.805 61.4533 227.599 60.68 227.599 59.8H229.359C229.359 60.3467 229.485 60.8533 229.739 61.32C229.992 61.7733 230.359 62.14 230.839 62.42C231.332 62.6867 231.939 62.82 232.659 62.82C233.605 62.82 234.339 62.5933 234.859 62.14C235.379 61.6867 235.639 61.12 235.639 60.44C235.639 59.88 235.519 59.4333 235.279 59.1C235.039 58.7533 234.712 58.4733 234.299 58.26C233.899 58.0467 233.432 57.86 232.899 57.7C232.379 57.54 231.832 57.36 231.259 57.16C230.179 56.7867 229.379 56.3267 228.859 55.78C228.339 55.22 228.079 54.4933 228.079 53.6C228.065 52.8533 228.239 52.1933 228.599 51.62C228.959 51.0333 229.465 50.58 230.119 50.26C230.785 49.9267 231.572 49.76 232.479 49.76C233.372 49.76 234.145 49.9267 234.799 50.26C235.465 50.5933 235.979 51.0533 236.339 51.64C236.712 52.2267 236.905 52.8933 236.919 53.64H235.159C235.159 53.2533 235.059 52.8733 234.859 52.5C234.659 52.1133 234.352 51.8 233.939 51.56C233.539 51.32 233.032 51.2 232.419 51.2C231.659 51.1867 231.032 51.38 230.539 51.78C230.059 52.18 229.819 52.7333 229.819 53.44C229.819 54.04 229.985 54.5 230.319 54.82C230.665 55.14 231.145 55.4067 231.759 55.62C232.372 55.82 233.079 56.0533 233.879 56.32C234.545 56.56 235.145 56.84 235.679 57.16C236.212 57.48 236.625 57.8933 236.919 58.4C237.225 58.9067 237.379 59.5533 237.379 60.34C237.379 61.0067 237.205 61.64 236.859 62.24C236.512 62.8267 235.985 63.3067 235.279 63.68C234.585 64.0533 233.712 64.24 232.659 64.24ZM242.709 64V51.38H238.529V50H248.569V51.38H244.389V64H242.709ZM255.681 64.24C254.721 64.24 253.847 64.0533 253.061 63.68C252.287 63.2933 251.667 62.7 251.201 61.9C250.734 61.1 250.501 60.08 250.501 58.84V50H252.181V58.86C252.181 60.22 252.507 61.2067 253.161 61.82C253.814 62.4333 254.667 62.74 255.721 62.74C256.774 62.74 257.621 62.4333 258.261 61.82C258.901 61.2067 259.221 60.22 259.221 58.86V50H260.901V58.84C260.901 60.08 260.667 61.1 260.201 61.9C259.734 62.7 259.107 63.2933 258.321 63.68C257.534 64.0533 256.654 64.24 255.681 64.24ZM267.966 64L262.706 50H264.526L268.946 62.22L273.406 50H275.186L269.926 64H267.966ZM279.985 64.02L276.145 50H277.945L280.965 62.02L284.405 50H286.265L289.605 62.02L292.665 50H294.465L290.545 64H288.625L285.285 52.44L281.865 64L279.985 64.02ZM295.721 64L300.001 56.94L295.721 50H297.621L301.061 55.6L304.341 50H306.221L301.941 57.02L306.241 64H304.341L300.881 58.38L297.621 64H295.721ZM311.952 64V58.68L307.392 50H309.292L312.792 57.08L316.292 50H318.172L313.632 58.68V64H311.952ZM319.454 64V62.68L326.354 51.46H319.554V50H328.314V51.32L321.394 62.54H328.394V64H319.454Z" fill="#101010"/>
<path d="M5.552 95.192C4.56 95.192 3.70133 94.952 2.976 94.472C2.26133 93.9813 1.712 93.304 1.328 92.44C0.944 91.5653 0.752 90.552 0.752 89.4C0.752 88.248 0.944 87.24 1.328 86.376C1.712 85.5013 2.26133 84.824 2.976 84.344C3.70133 83.8533 4.56 83.608 5.552 83.608C6.544 83.608 7.39733 83.8533 8.112 84.344C8.82667 84.824 9.376 85.5013 9.76 86.376C10.144 87.24 10.336 88.248 10.336 89.4C10.336 90.552 10.144 91.5653 9.76 92.44C9.376 93.304 8.82667 93.9813 8.112 94.472C7.39733 94.952 6.544 95.192 5.552 95.192ZM5.552 94.008C6.20267 94.008 6.784 93.8267 7.296 93.464C7.81867 93.0907 8.224 92.5627 8.512 91.88C8.81067 91.1867 8.96 90.36 8.96 89.4C8.96 88.44 8.81067 87.6187 8.512 86.936C8.224 86.2533 7.81867 85.7307 7.296 85.368C6.784 84.9947 6.20267 84.808 5.552 84.808C4.89067 84.808 4.304 84.9947 3.792 85.368C3.28 85.7307 2.87467 86.2533 2.576 86.936C2.27733 87.6187 2.128 88.44 2.128 89.4C2.128 90.36 2.27733 91.1867 2.576 91.88C2.87467 92.5627 3.28 93.0907 3.792 93.464C4.304 93.8267 4.89067 94.008 5.552 94.008ZM13.3818 95V85.304L11.5738 85.704V84.776L13.8298 83.8H14.7418V95H13.3818ZM16.9299 95V94.056C17.6872 93.4587 18.4019 92.856 19.0739 92.248C19.7565 91.6293 20.3592 91.0213 20.8819 90.424C21.4152 89.8267 21.8312 89.24 22.1299 88.664C22.4392 88.088 22.5939 87.5333 22.5939 87C22.5939 86.6053 22.5245 86.2373 22.3859 85.896C22.2579 85.5547 22.0445 85.2827 21.7459 85.08C21.4472 84.8667 21.0419 84.76 20.5299 84.76C20.0392 84.76 19.6285 84.872 19.2979 85.096C18.9672 85.3093 18.7165 85.5973 18.5459 85.96C18.3859 86.3227 18.3059 86.712 18.3059 87.128H17.0099C17.0099 86.392 17.1645 85.7627 17.4739 85.24C17.7832 84.7067 18.2045 84.3013 18.7379 84.024C19.2712 83.7467 19.8739 83.608 20.5459 83.608C21.5379 83.608 22.3485 83.8907 22.9779 84.456C23.6179 85.0107 23.9379 85.8427 23.9379 86.952C23.9379 87.6133 23.7725 88.2693 23.4419 88.92C23.1112 89.56 22.6899 90.184 22.1779 90.792C21.6659 91.3893 21.1165 91.9493 20.5299 92.472C19.9539 92.9947 19.4152 93.464 18.9139 93.88H24.3219V95H16.9299ZM29.7501 95.192C29.0355 95.192 28.3901 95.064 27.8141 94.808C27.2381 94.5413 26.7741 94.1467 26.4221 93.624C26.0808 93.1013 25.8995 92.4507 25.8781 91.672H27.2381C27.2488 92.312 27.4728 92.8667 27.9101 93.336C28.3475 93.7947 28.9608 94.024 29.7501 94.024C30.5395 94.024 31.1315 93.8053 31.5261 93.368C31.9315 92.9307 32.1341 92.4027 32.1341 91.784C32.1341 91.2613 32.0061 90.8347 31.7501 90.504C31.5048 90.1733 31.1688 89.928 30.7421 89.768C30.3261 89.608 29.8675 89.528 29.3661 89.528H28.5341V88.392H29.3661C30.0915 88.392 30.6568 88.2267 31.0621 87.896C31.4781 87.5653 31.6861 87.1013 31.6861 86.504C31.6861 86.0027 31.5208 85.592 31.1901 85.272C30.8701 84.9413 30.3901 84.776 29.7501 84.776C29.1315 84.776 28.6355 84.9627 28.2621 85.336C27.8888 85.6987 27.6808 86.1573 27.6381 86.712H26.2781C26.3101 86.104 26.4701 85.5653 26.7581 85.096C27.0568 84.6267 27.4621 84.264 27.9741 84.008C28.4861 83.7413 29.0781 83.608 29.7501 83.608C30.4755 83.608 31.0781 83.736 31.5581 83.992C32.0488 84.248 32.4168 84.5893 32.6621 85.016C32.9181 85.4427 33.0461 85.912 33.0461 86.424C33.0461 86.9893 32.8915 87.5067 32.5821 87.976C32.2728 88.4347 31.8088 88.744 31.1901 88.904C31.8515 89.0427 32.4008 89.3573 32.8381 89.848C33.2755 90.3387 33.4941 90.984 33.4941 91.784C33.4941 92.4027 33.3501 92.9733 33.0621 93.496C32.7848 94.008 32.3688 94.4187 31.8141 94.728C31.2595 95.0373 30.5715 95.192 29.7501 95.192ZM40.7404 95V92.6H35.0604V91.56L40.5004 83.8H42.0684V91.416H43.7324V92.6H42.0684V95H40.7404ZM36.5484 91.416H40.8044V85.288L36.5484 91.416ZM49.1639 95.192C48.3959 95.192 47.7292 95.0533 47.1639 94.776C46.5985 94.4987 46.1452 94.12 45.8039 93.64C45.4732 93.1493 45.2705 92.5947 45.1959 91.976H46.5079C46.6359 92.5947 46.9345 93.096 47.4039 93.48C47.8732 93.8533 48.4652 94.04 49.1799 94.04C49.7132 94.04 50.1719 93.9173 50.5559 93.672C50.9399 93.416 51.2332 93.0747 51.4359 92.648C51.6492 92.2213 51.7559 91.7467 51.7559 91.224C51.7559 90.392 51.5212 89.72 51.0519 89.208C50.5825 88.696 49.9745 88.44 49.2279 88.44C48.6092 88.44 48.0812 88.5787 47.6439 88.856C47.2065 89.1333 46.8865 89.496 46.6839 89.944H45.4039L46.3639 83.8H52.2359V84.968H47.4039L46.7479 88.376C47.0039 88.0667 47.3559 87.8107 47.8039 87.608C48.2625 87.4053 48.7852 87.304 49.3719 87.304C50.1079 87.304 50.7479 87.4747 51.2919 87.816C51.8465 88.1573 52.2785 88.6213 52.5879 89.208C52.8972 89.7947 53.0519 90.4613 53.0519 91.208C53.0519 91.9227 52.8972 92.584 52.5879 93.192C52.2892 93.8 51.8465 94.2853 51.2599 94.648C50.6839 95.0107 49.9852 95.192 49.1639 95.192ZM59.1848 95.192C58.3741 95.192 57.6914 95.0427 57.1368 94.744C56.5821 94.4347 56.1341 94.024 55.7928 93.512C55.4621 93 55.2168 92.4293 55.0568 91.8C54.9074 91.16 54.8328 90.5093 54.8328 89.848C54.8328 88.6107 55.0034 87.528 55.3448 86.6C55.6861 85.6613 56.1768 84.9307 56.8168 84.408C57.4674 83.8747 58.2514 83.608 59.1688 83.608C59.8728 83.608 60.4754 83.7467 60.9768 84.024C61.4781 84.3013 61.8728 84.6747 62.1608 85.144C62.4594 85.6027 62.6461 86.1147 62.7208 86.68H61.4728C61.3554 86.072 61.0941 85.6027 60.6888 85.272C60.2834 84.9413 59.7714 84.776 59.1528 84.776C58.3101 84.776 57.6008 85.176 57.0248 85.976C56.4594 86.7653 56.1554 88.0027 56.1128 89.688C56.3688 89.1867 56.7741 88.7547 57.3288 88.392C57.8941 88.0187 58.5714 87.832 59.3608 87.832C60.0008 87.832 60.5981 87.9813 61.1528 88.28C61.7181 88.5787 62.1768 89 62.5288 89.544C62.8808 90.0773 63.0568 90.7067 63.0568 91.432C63.0568 92.0613 62.9021 92.664 62.5928 93.24C62.2834 93.816 61.8354 94.2853 61.2488 94.648C60.6728 95.0107 59.9848 95.192 59.1848 95.192ZM59.0888 94.008C59.5901 94.008 60.0381 93.9013 60.4328 93.688C60.8274 93.4747 61.1368 93.1813 61.3608 92.808C61.5848 92.424 61.6968 91.9867 61.6968 91.496C61.6968 90.7387 61.4461 90.136 60.9448 89.688C60.4541 89.2293 59.8354 89 59.0888 89C58.5874 89 58.1394 89.1173 57.7448 89.352C57.3501 89.576 57.0354 89.88 56.8008 90.264C56.5768 90.648 56.4648 91.064 56.4648 91.512C56.4648 91.992 56.5768 92.424 56.8008 92.808C57.0354 93.1813 57.3501 93.4747 57.7448 93.688C58.1394 93.9013 58.5874 94.008 59.0888 94.008ZM65.737 95L70.185 84.952H64.041V83.8H71.561V84.808L67.161 95H65.737ZM76.7706 95.192C76.0346 95.192 75.3733 95.0587 74.7866 94.792C74.2 94.5147 73.736 94.136 73.3946 93.656C73.064 93.1653 72.8986 92.6 72.8986 91.96C72.8986 91.2773 73.096 90.664 73.4906 90.12C73.896 89.576 74.4293 89.2133 75.0906 89.032C74.4826 88.8293 74.0133 88.504 73.6826 88.056C73.352 87.608 73.1866 87.1173 73.1866 86.584C73.1866 86.04 73.3306 85.544 73.6186 85.096C73.9066 84.6373 74.3173 84.2747 74.8506 84.008C75.384 83.7413 76.024 83.608 76.7706 83.608C77.5173 83.608 78.1573 83.7413 78.6906 84.008C79.224 84.2747 79.6346 84.6373 79.9226 85.096C80.2106 85.544 80.3546 86.04 80.3546 86.584C80.3546 87.1067 80.1893 87.5973 79.8586 88.056C79.528 88.504 79.0586 88.8293 78.4506 89.032C79.112 89.2133 79.64 89.576 80.0346 90.12C80.44 90.664 80.6426 91.2773 80.6426 91.96C80.6426 92.6 80.472 93.1653 80.1306 93.656C79.8 94.136 79.3413 94.5147 78.7546 94.792C78.168 95.0587 77.5066 95.192 76.7706 95.192ZM76.7706 88.552C77.4533 88.552 77.992 88.3813 78.3866 88.04C78.792 87.688 78.9946 87.2293 78.9946 86.664C78.9946 86.0347 78.7973 85.56 78.4026 85.24C78.008 84.92 77.464 84.76 76.7706 84.76C76.0773 84.76 75.5333 84.92 75.1386 85.24C74.7546 85.56 74.5626 86.0347 74.5626 86.664C74.5626 87.2293 74.76 87.688 75.1546 88.04C75.5493 88.3813 76.088 88.552 76.7706 88.552ZM76.7706 94.008C77.6133 94.008 78.2426 93.816 78.6586 93.432C79.0853 93.0373 79.2986 92.52 79.2986 91.88C79.2986 91.1547 79.0693 90.6053 78.6106 90.232C78.152 89.8587 77.5386 89.672 76.7706 89.672C76.0026 89.672 75.3893 89.8587 74.9306 90.232C74.472 90.6053 74.2426 91.1547 74.2426 91.88C74.2426 92.52 74.4506 93.0373 74.8666 93.432C75.2933 93.816 75.928 94.008 76.7706 94.008ZM86.0675 95.192C85.3635 95.192 84.7608 95.0533 84.2595 94.776C83.7582 94.4987 83.3582 94.1307 83.0595 93.672C82.7715 93.2027 82.5955 92.6853 82.5315 92.12H83.7795C83.8862 92.728 84.1422 93.1973 84.5475 93.528C84.9528 93.8587 85.4648 94.024 86.0835 94.024C86.9368 94.024 87.6462 93.6293 88.2115 92.84C88.7768 92.04 89.0808 90.7973 89.1235 89.112C88.8675 89.6133 88.4568 90.0507 87.8915 90.424C87.3368 90.7867 86.6648 90.968 85.8755 90.968C85.2462 90.968 84.6488 90.8187 84.0835 90.52C83.5182 90.2213 83.0595 89.8053 82.7075 89.272C82.3555 88.728 82.1795 88.0933 82.1795 87.368C82.1795 86.7387 82.3342 86.136 82.6435 85.56C82.9635 84.984 83.4115 84.5147 83.9875 84.152C84.5635 83.7893 85.2515 83.608 86.0515 83.608C86.8622 83.608 87.5448 83.7627 88.0995 84.072C88.6542 84.3707 89.0968 84.776 89.4275 85.288C89.7688 85.8 90.0142 86.376 90.1635 87.016C90.3235 87.6453 90.4035 88.2907 90.4035 88.952C90.4035 90.1893 90.2328 91.2773 89.8915 92.216C89.5502 93.144 89.0542 93.8747 88.4035 94.408C87.7635 94.9307 86.9848 95.192 86.0675 95.192ZM86.1475 89.8C86.6488 89.8 87.0968 89.688 87.4915 89.464C87.8862 89.2293 88.2008 88.92 88.4355 88.536C88.6702 88.152 88.7875 87.736 88.7875 87.288C88.7875 86.808 88.6702 86.3813 88.4355 86.008C88.2008 85.624 87.8862 85.3253 87.4915 85.112C87.0968 84.8987 86.6488 84.792 86.1475 84.792C85.6462 84.792 85.1982 84.8987 84.8035 85.112C84.4088 85.3253 84.0995 85.624 83.8755 86.008C83.6515 86.3813 83.5395 86.8133 83.5395 87.304C83.5395 88.0613 83.7848 88.6693 84.2755 89.128C84.7768 89.576 85.4008 89.8 86.1475 89.8Z" fill="#101010"/>
<path d="M1.218 120.284L1.078 113.2H2.352L2.212 120.284H1.218ZM1.75 123.07C1.51667 123.07 1.32067 122.995 1.162 122.846C1.01267 122.687 0.938 122.496 0.938 122.272C0.938 122.048 1.01267 121.861 1.162 121.712C1.32067 121.553 1.51667 121.474 1.75 121.474C1.974 121.474 2.16067 121.553 2.31 121.712C2.46867 121.861 2.548 122.048 2.548 122.272C2.548 122.496 2.46867 122.687 2.31 122.846C2.16067 122.995 1.974 123.07 1.75 123.07ZM9.52066 125.786C8.52199 125.786 7.64466 125.595 6.88866 125.212C6.14199 124.829 5.55866 124.288 5.13866 123.588C4.72799 122.888 4.52266 122.057 4.52266 121.096C4.52266 120.107 4.69532 119.183 5.04066 118.324C5.38599 117.465 5.87132 116.714 6.49666 116.07C7.12199 115.426 7.85932 114.927 8.70866 114.572C9.55799 114.217 10.4913 114.04 11.5087 114.04C12.5447 114.04 13.4453 114.241 14.2107 114.642C14.976 115.034 15.564 115.585 15.9747 116.294C16.3947 116.994 16.6047 117.811 16.6047 118.744C16.6047 119.276 16.5393 119.803 16.4087 120.326C16.278 120.839 16.082 121.306 15.8207 121.726C15.5687 122.137 15.256 122.468 14.8827 122.72C14.5187 122.963 14.0987 123.084 13.6227 123.084C13.1467 123.084 12.7827 122.963 12.5307 122.72C12.288 122.477 12.1527 122.151 12.1247 121.74C11.8353 122.16 11.4667 122.491 11.0187 122.734C10.58 122.967 10.1133 123.084 9.61866 123.084C8.90932 123.084 8.35399 122.869 7.95266 122.44C7.56066 122.011 7.36466 121.432 7.36466 120.704C7.36466 120.191 7.44399 119.701 7.60266 119.234C7.77066 118.758 8.00399 118.338 8.30266 117.974C8.60132 117.601 8.95599 117.307 9.36666 117.092C9.77732 116.877 10.2347 116.77 10.7387 116.77C11.6813 116.77 12.2927 117.157 12.5727 117.932L12.7547 116.924H13.7487L13.0487 120.928C12.9833 121.329 13.002 121.656 13.1047 121.908C13.2167 122.151 13.4453 122.272 13.7907 122.272C14.0893 122.272 14.3553 122.169 14.5887 121.964C14.822 121.749 15.018 121.469 15.1767 121.124C15.3353 120.769 15.452 120.391 15.5267 119.99C15.6107 119.579 15.6527 119.183 15.6527 118.8C15.6527 117.577 15.27 116.616 14.5047 115.916C13.7487 115.216 12.7033 114.866 11.3687 114.866C10.5193 114.866 9.73532 115.025 9.01666 115.342C8.30732 115.659 7.68666 116.098 7.15466 116.658C6.62266 117.218 6.20732 117.867 5.90866 118.604C5.61932 119.341 5.47466 120.139 5.47466 120.998C5.47466 121.838 5.64732 122.552 5.99266 123.14C6.33799 123.728 6.82799 124.176 7.46266 124.484C8.09732 124.792 8.85332 124.946 9.73066 124.946C10.132 124.946 10.5333 124.904 10.9347 124.82C11.336 124.745 11.7093 124.629 12.0547 124.47L12.2507 125.268C11.4107 125.613 10.5007 125.786 9.52066 125.786ZM9.96866 122.188C10.37 122.188 10.7387 122.081 11.0747 121.866C11.4107 121.651 11.686 121.357 11.9007 120.984C12.1153 120.601 12.246 120.163 12.2927 119.668C12.358 119.117 12.26 118.646 11.9987 118.254C11.7467 117.862 11.336 117.666 10.7667 117.666C10.2907 117.666 9.87532 117.806 9.52066 118.086C9.17532 118.357 8.90932 118.711 8.72266 119.15C8.53599 119.589 8.44266 120.046 8.44266 120.522C8.44266 121.026 8.56866 121.432 8.82066 121.74C9.08199 122.039 9.46466 122.188 9.96866 122.188ZM19.6804 123L20.2824 120.242H18.2944V119.192H20.5064L20.9824 116.91H18.8824V115.874H21.2064L21.7944 113.116H22.9144L22.3264 115.874H25.3364L25.9244 113.116H27.0304L26.4424 115.874H28.3884V116.91H26.2184L25.7424 119.192H27.7724V120.242H25.5184L24.9164 123H23.7964L24.3984 120.242H21.3884L20.8004 123H19.6804ZM21.6124 119.192H24.6224L25.1124 116.91H22.1024L21.6124 119.192ZM32.6367 124.218V123.14C31.7221 123.037 30.9987 122.711 30.4667 122.16C29.9347 121.609 29.6687 120.909 29.6687 120.06H30.9007C30.9007 120.555 31.0454 120.998 31.3347 121.39C31.6334 121.773 32.0674 122.02 32.6367 122.132V118.338C32.5714 118.319 32.5014 118.301 32.4267 118.282C32.3614 118.254 32.2961 118.231 32.2307 118.212C31.4747 117.951 30.9147 117.629 30.5507 117.246C30.1867 116.854 30.0047 116.345 30.0047 115.72C29.9954 114.992 30.2241 114.385 30.6907 113.9C31.1667 113.415 31.8154 113.135 32.6367 113.06V111.926H33.6027V113.06C34.3867 113.153 35.0121 113.447 35.4787 113.942C35.9454 114.437 36.1834 115.039 36.1927 115.748H34.9607C34.9607 115.403 34.8487 115.071 34.6247 114.754C34.4007 114.427 34.0601 114.208 33.6027 114.096V117.484C33.6774 117.503 33.7521 117.526 33.8267 117.554C33.9014 117.582 33.9807 117.605 34.0647 117.624C34.5314 117.792 34.9514 117.988 35.3247 118.212C35.6981 118.436 35.9874 118.725 36.1927 119.08C36.4074 119.435 36.5147 119.887 36.5147 120.438C36.5147 120.877 36.4074 121.292 36.1927 121.684C35.9781 122.076 35.6514 122.407 35.2127 122.678C34.7834 122.949 34.2467 123.107 33.6027 123.154V124.218H32.6367ZM31.2227 115.608C31.2227 116.037 31.3487 116.364 31.6007 116.588C31.8527 116.803 32.1981 116.989 32.6367 117.148V114.068C32.2167 114.133 31.8761 114.301 31.6147 114.572C31.3534 114.833 31.2227 115.179 31.2227 115.608ZM35.2967 120.508C35.2967 119.967 35.1381 119.565 34.8207 119.304C34.5034 119.043 34.0974 118.828 33.6027 118.66V122.16C34.1441 122.095 34.5594 121.908 34.8487 121.6C35.1474 121.292 35.2967 120.928 35.2967 120.508ZM39.9465 117.75C39.5265 117.75 39.1438 117.657 38.7985 117.47C38.4625 117.274 38.1965 117.003 38.0005 116.658C37.8045 116.303 37.7065 115.883 37.7065 115.398C37.7065 114.913 37.8045 114.497 38.0005 114.152C38.2058 113.797 38.4765 113.527 38.8125 113.34C39.1578 113.144 39.5405 113.046 39.9605 113.046C40.3805 113.046 40.7585 113.144 41.0945 113.34C41.4305 113.527 41.6965 113.797 41.8925 114.152C42.0885 114.497 42.1865 114.913 42.1865 115.398C42.1865 115.883 42.0838 116.303 41.8785 116.658C41.6825 117.003 41.4165 117.274 41.0805 117.47C40.7445 117.657 40.3665 117.75 39.9465 117.75ZM39.0785 123L44.7765 113.2H45.9525L40.2545 123H39.0785ZM39.9465 116.84C40.2732 116.84 40.5578 116.719 40.8005 116.476C41.0525 116.233 41.1785 115.874 41.1785 115.398C41.1785 114.913 41.0572 114.549 40.8145 114.306C40.5718 114.054 40.2872 113.928 39.9605 113.928C39.6338 113.928 39.3398 114.054 39.0785 114.306C38.8265 114.549 38.7005 114.913 38.7005 115.398C38.7005 115.874 38.8265 116.233 39.0785 116.476C39.3305 116.719 39.6198 116.84 39.9465 116.84ZM45.1825 123.168C44.7625 123.168 44.3798 123.075 44.0345 122.888C43.6985 122.692 43.4325 122.421 43.2365 122.076C43.0405 121.721 42.9425 121.301 42.9425 120.816C42.9425 120.331 43.0405 119.915 43.2365 119.57C43.4418 119.215 43.7125 118.945 44.0485 118.758C44.3845 118.562 44.7625 118.464 45.1825 118.464C45.6025 118.464 45.9805 118.562 46.3165 118.758C46.6525 118.945 46.9185 119.215 47.1145 119.57C47.3105 119.915 47.4085 120.331 47.4085 120.816C47.4085 121.301 47.3105 121.721 47.1145 122.076C46.9185 122.421 46.6525 122.692 46.3165 122.888C45.9805 123.075 45.6025 123.168 45.1825 123.168ZM45.1685 122.258C45.5045 122.258 45.7938 122.137 46.0365 121.894C46.2885 121.651 46.4145 121.292 46.4145 120.816C46.4145 120.331 46.2932 119.967 46.0505 119.724C45.8078 119.481 45.5185 119.36 45.1825 119.36C44.8558 119.36 44.5665 119.481 44.3145 119.724C44.0625 119.967 43.9365 120.331 43.9365 120.816C43.9365 121.292 44.0578 121.651 44.3005 121.894C44.5525 122.137 44.8418 122.258 45.1685 122.258ZM48.4926 120.508L51.7826 113.2H52.8606L56.1506 120.508H54.9466L52.3286 114.642L49.6966 120.508H48.4926ZM60.5903 123.168C59.9183 123.168 59.3256 123.047 58.8123 122.804C58.3083 122.552 57.9116 122.207 57.6223 121.768C57.3423 121.32 57.2023 120.793 57.2023 120.186C57.2023 119.523 57.3936 118.935 57.7763 118.422C58.1683 117.899 58.7329 117.489 59.4703 117.19C59.1529 116.845 58.9243 116.518 58.7843 116.21C58.6443 115.893 58.5743 115.552 58.5743 115.188C58.5743 114.563 58.7936 114.049 59.2323 113.648C59.6803 113.237 60.2916 113.032 61.0663 113.032C61.5703 113.032 62.0089 113.13 62.3823 113.326C62.7556 113.513 63.0449 113.774 63.2503 114.11C63.4556 114.446 63.5489 114.829 63.5303 115.258H62.3683C62.3776 114.838 62.2469 114.521 61.9763 114.306C61.7149 114.091 61.4116 113.984 61.0663 113.984C60.6463 113.984 60.3196 114.096 60.0863 114.32C59.8529 114.544 59.7363 114.829 59.7363 115.174C59.7363 115.473 59.8156 115.762 59.9743 116.042C60.1423 116.322 60.3896 116.635 60.7163 116.98L63.8103 120.102C64.0809 119.71 64.3749 119.239 64.6923 118.688L65.1263 117.932H66.3723L65.7563 119.024C65.3456 119.761 64.9536 120.377 64.5803 120.872L66.6943 123H65.2103L63.9083 121.684C63.4136 122.216 62.9003 122.599 62.3683 122.832C61.8363 123.056 61.2436 123.168 60.5903 123.168ZM58.3783 120.144C58.3783 120.723 58.5836 121.203 58.9943 121.586C59.4049 121.969 59.9416 122.16 60.6043 122.16C61.0989 122.16 61.5469 122.067 61.9483 121.88C62.3589 121.684 62.7603 121.367 63.1523 120.928L60.1843 117.918C59.5683 118.161 59.1109 118.469 58.8123 118.842C58.5229 119.215 58.3783 119.649 58.3783 120.144ZM69.289 117.96L69.457 115.818L67.721 117.036L67.231 116.182L69.177 115.328L67.245 114.488L67.707 113.662L69.471 114.88L69.275 112.738H70.227L70.017 114.88L71.767 113.662L72.215 114.474L70.283 115.342L72.229 116.196L71.767 117.022L70.017 115.818L70.213 117.96H69.289ZM76.5345 125.03C76.0305 124.545 75.5638 123.966 75.1345 123.294C74.7052 122.631 74.3598 121.885 74.0985 121.054C73.8465 120.214 73.7205 119.309 73.7205 118.338C73.7205 117.367 73.8465 116.467 74.0985 115.636C74.3598 114.796 74.7052 114.045 75.1345 113.382C75.5638 112.71 76.0305 112.131 76.5345 111.646H77.7385V111.758C76.8798 112.598 76.1892 113.583 75.6665 114.712C75.1532 115.832 74.8965 117.041 74.8965 118.338C74.8965 119.635 75.1578 120.849 75.6805 121.978C76.2032 123.098 76.8892 124.078 77.7385 124.918V125.03H76.5345ZM78.8035 125.03V124.918C79.6528 124.078 80.3388 123.098 80.8615 121.978C81.3935 120.849 81.6595 119.635 81.6595 118.338C81.6595 117.041 81.3982 115.832 80.8755 114.712C80.3528 113.583 79.6668 112.598 78.8175 111.758V111.646H80.0075C80.5208 112.131 80.9875 112.71 81.4075 113.382C81.8368 114.045 82.1775 114.796 82.4295 115.636C82.6908 116.467 82.8215 117.367 82.8215 118.338C82.8215 119.309 82.6908 120.214 82.4295 121.054C82.1775 121.885 81.8368 122.631 81.4075 123.294C80.9875 123.966 80.5208 124.545 80.0075 125.03H78.8035ZM84.8525 123.07C84.6191 123.07 84.4231 122.995 84.2645 122.846C84.1151 122.687 84.0405 122.496 84.0405 122.272C84.0405 122.048 84.1151 121.861 84.2645 121.712C84.4231 121.553 84.6191 121.474 84.8525 121.474C85.0765 121.474 85.2631 121.553 85.4125 121.712C85.5711 121.861 85.6505 122.048 85.6505 122.272C85.6505 122.496 85.5711 122.687 85.4125 122.846C85.2631 122.995 85.0765 123.07 84.8525 123.07Z" fill="#101010"/>
</svg>
