<svg width="291" height="53" viewBox="0 0 291 53" fill="none" xmlns="http://www.w3.org/2000/svg">
<path d="M0.896 52H-1.104V54H0.896V52ZM0.896 1.6V-0.400003H-1.104V1.6H0.896ZM32.648 4.768L31.6748 6.51527L31.6879 6.52256L31.7011 6.52965L32.648 4.768ZM41.144 13.552L39.3417 14.4189L39.3483 14.4327L39.3551 14.4464L41.144 13.552ZM41.144 40.12L39.3506 39.2347L39.346 39.2441L41.144 40.12ZM32.648 48.904L33.6042 50.6607L33.6118 50.6564L32.648 48.904ZM10.112 44.08H8.112V46.08H10.112V44.08ZM27.68 42.064L28.6425 43.8172L28.6556 43.81L28.6686 43.8026L27.68 42.064ZM32.936 36.16L34.7832 36.9268L34.7882 36.9146L32.936 36.16ZM32.936 17.512L31.0838 18.2666L32.936 17.512ZM10.112 9.448V7.448H8.112V9.448H10.112ZM2.896 52V1.6H-1.104V52H2.896ZM0.896 3.6H18.104V-0.400003H0.896V3.6ZM18.104 3.6C23.7848 3.6 28.2685 4.61805 31.6748 6.51527L33.6212 3.02073C29.4435 0.693947 24.2312 -0.400003 18.104 -0.400003V3.6ZM31.7011 6.52965C35.1829 8.4011 37.708 11.0226 39.3417 14.4189L42.9463 12.6851C40.932 8.49743 37.7931 5.2629 33.5949 3.00635L31.7011 6.52965ZM39.3551 14.4464C41.0615 17.8592 41.952 21.9565 41.952 26.8H45.952C45.952 21.4675 44.9705 16.7328 42.9329 12.6576L39.3551 14.4464ZM41.952 26.8C41.952 31.6426 41.0618 35.7684 39.3506 39.2347L42.9374 41.0053C44.9702 36.8876 45.952 32.1334 45.952 26.8H41.952ZM39.346 39.2441C37.7127 42.5967 35.1824 45.2276 31.6842 47.1516L33.6118 50.6564C37.7936 48.3564 40.9273 45.1313 42.942 40.9959L39.346 39.2441ZM31.6919 47.1474C28.2813 49.0038 23.791 50 18.104 50V54C24.225 54 29.4307 52.9322 33.6041 50.6606L31.6919 47.1474ZM18.104 50H0.896V54H18.104V50ZM10.112 46.08H17.672V42.08H10.112V46.08ZM17.672 46.08C22.074 46.08 25.7863 45.3853 28.6425 43.8172L26.7175 40.3108C24.6777 41.4307 21.718 42.08 17.672 42.08V46.08ZM28.6686 43.8026C31.4935 42.1963 33.5528 39.8909 34.7832 36.9268L31.0888 35.3932C30.2072 37.5171 28.7626 39.1477 26.6914 40.3254L28.6686 43.8026ZM34.7882 36.9146C35.9665 34.0224 36.52 30.632 36.52 26.8H32.52C32.52 30.264 32.0175 33.1136 31.0838 35.4054L34.7882 36.9146ZM36.52 26.8C36.52 23.0121 35.9654 19.6468 34.7882 16.7574L31.0838 18.2666C32.0186 20.5612 32.52 23.3879 32.52 26.8H36.52ZM34.7882 16.7574C33.5617 13.747 31.5041 11.4098 28.6686 9.79742L26.6914 13.2746C28.7519 14.4462 30.1983 16.093 31.0838 18.2666L34.7882 16.7574ZM28.6686 9.79742C25.8053 8.16928 22.0824 7.448 17.672 7.448V11.448C21.7096 11.448 24.6587 12.1187 26.6914 13.2746L28.6686 9.79742ZM17.672 7.448H10.112V11.448H17.672V7.448ZM8.112 9.448V44.08H12.112V9.448H8.112ZM52.0835 52H50.0835V54H52.0835V52ZM52.0835 1.6V-0.400003H50.0835V1.6H52.0835ZM63.0275 1.6L64.8147 0.702351L64.2611 -0.400003H63.0275V1.6ZM79.0835 33.568L77.2963 34.4656L79.0956 38.0482L80.8756 34.456L79.0835 33.568ZM94.9235 1.6V-0.400003H93.6824L93.1314 0.712032L94.9235 1.6ZM105.868 1.6H107.868V-0.400003H105.868V1.6ZM105.868 52V54H107.868V52H105.868ZM96.6515 52H94.6515V54H96.6515V52ZM96.6515 17.224H98.6515L94.8692 16.3166L96.6515 17.224ZM82.6115 44.8V46.8H83.8375L84.3938 45.7074L82.6115 44.8ZM75.3395 44.8L73.5572 45.7074L74.1135 46.8H75.3395V44.8ZM61.2995 17.224L63.0818 16.3166L59.2995 17.224H61.2995ZM61.2995 52V54H63.2995V52H61.2995ZM54.0835 52V1.6H50.0835V52H54.0835ZM52.0835 3.6H63.0275V-0.400003H52.0835V3.6ZM61.2403 2.49764L77.2963 34.4656L80.8707 32.6704L64.8147 0.702351L61.2403 2.49764ZM80.8756 34.456L96.7156 2.48796L93.1314 0.712032L77.2914 32.68L80.8756 34.456ZM94.9235 3.6H105.868V-0.400003H94.9235V3.6ZM103.868 1.6V52H107.868V1.6H103.868ZM105.868 50H96.6515V54H105.868V50ZM98.6515 52V17.224H94.6515V52H98.6515ZM94.8692 16.3166L80.8292 43.8926L84.3938 45.7074L98.4338 18.1314L94.8692 16.3166ZM82.6115 42.8H75.3395V46.8H82.6115V42.8ZM77.1218 43.8926L63.0818 16.3166L59.5172 18.1314L73.5572 45.7074L77.1218 43.8926ZM59.2995 17.224V52H63.2995V17.224H59.2995ZM61.2995 50H52.0835V54H61.2995V50ZM140.218 50.992L139.386 52.8106L139.399 52.8165L139.412 52.8222L140.218 50.992ZM133.522 45.52L131.868 46.6446L131.874 46.6524L131.879 46.6602L133.522 45.52ZM131.002 36.808V34.808H128.974L129.002 36.8362L131.002 36.808ZM140.722 36.808L142.721 36.7264L142.642 34.808H140.722V36.808ZM143.242 42.784L141.807 44.177L141.828 44.1984L141.849 44.2192L143.242 42.784ZM155.77 43.432L157.02 44.9937L157.035 44.9812L157.051 44.9684L155.77 43.432ZM155.986 33.856L154.63 35.3256L154.643 35.3383L154.658 35.3508L155.986 33.856ZM150.946 31.048L150.301 32.941L150.946 31.048ZM144.178 28.744L143.525 30.6343L143.534 30.6375L144.178 28.744ZM135.25 23.56L133.804 24.941L133.812 24.9495L133.82 24.9579L135.25 23.56ZM132.226 15.136H134.226V15.1199L134.226 15.1037L132.226 15.136ZM134.314 7.504L132.667 6.36938L132.662 6.37733L134.314 7.504ZM140.362 2.536L141.187 4.35791L141.201 4.35149L141.215 4.34486L140.362 2.536ZM158.002 2.536L157.149 4.34486L157.156 4.34792L157.162 4.35093L158.002 2.536ZM164.05 7.576L162.386 8.6854L162.395 8.69807L162.403 8.71061L164.05 7.576ZM166.426 15.28V17.28H168.492L168.425 15.2155L166.426 15.28ZM156.562 15.28L154.563 15.334L154.616 17.28H156.562V15.28ZM154.474 10.6L153.01 11.9628L153.035 11.989L153.06 12.0142L154.474 10.6ZM149.002 8.512L148.955 10.5114L148.978 10.512H149.002V8.512ZM143.89 10.024L145.09 11.624L145.099 11.6174L143.89 10.024ZM143.458 18.52L142.077 19.9667L142.095 19.9835L142.113 19.9999L143.458 18.52ZM147.778 20.968L148.47 19.0913L147.778 20.968ZM154.042 23.128L154.696 21.238L154.68 21.2323L154.663 21.2268L154.042 23.128ZM160.882 26.152L161.857 24.4056L160.882 26.152ZM165.85 30.76L164.173 31.85L164.18 31.8597L164.186 31.8694L165.85 30.76ZM165.706 45.376L167.424 46.3996L165.706 45.376ZM159.73 50.848L160.638 52.6303L160.65 52.6238L160.663 52.6171L159.73 50.848ZM150.01 50.864C146.539 50.864 143.558 50.2783 141.025 49.1618L139.412 52.8222C142.542 54.2017 146.09 54.864 150.01 54.864V50.864ZM141.05 49.1734C138.515 48.0131 136.575 46.4114 135.165 44.3798L131.879 46.6602C133.733 49.3326 136.257 51.3789 139.386 52.8106L141.05 49.1734ZM135.176 44.3954C133.8 42.3723 133.046 39.866 133.002 36.7798L129.002 36.8362C129.055 40.566 129.98 43.8677 131.868 46.6446L135.176 44.3954ZM131.002 38.808H140.722V34.808H131.002V38.808ZM138.724 36.8896C138.839 39.7142 139.868 42.1786 141.807 44.177L144.677 41.391C143.449 40.1254 142.797 38.6058 142.721 36.7264L138.724 36.8896ZM141.849 44.2192C143.941 46.2492 146.72 47.16 149.938 47.16V43.16C147.492 43.16 145.808 42.4868 144.635 41.3488L141.849 44.2192ZM149.938 47.16C152.691 47.16 155.124 46.5103 157.02 44.9937L154.521 41.8703C153.537 42.6577 152.081 43.16 149.938 43.16V47.16ZM157.051 44.9684C158.972 43.3672 159.93 41.2076 159.93 38.68H155.93C155.93 40.0884 155.448 41.0968 154.49 41.8956L157.051 44.9684ZM159.93 38.68C159.93 36.1637 159.119 33.9651 157.315 32.3612L154.658 35.3508C155.445 36.0508 155.93 37.0683 155.93 38.68H159.93ZM157.343 32.3864C155.836 30.9958 153.889 29.9381 151.592 29.155L150.301 32.941C152.228 33.5979 153.64 34.4122 154.63 35.3256L157.343 32.3864ZM151.592 29.155C149.479 28.4348 147.223 27.6666 144.822 26.8505L143.534 30.6375C145.934 31.4534 148.189 32.2212 150.301 32.941L151.592 29.155ZM144.832 26.8537C141.129 25.5737 138.459 23.9821 136.681 22.1621L133.82 24.9579C136.169 27.3619 139.452 29.2263 143.525 30.6342L144.832 26.8537ZM136.697 22.179C135.105 20.5113 134.226 18.235 134.226 15.136H130.226C130.226 19.045 131.363 22.3847 133.804 24.941L136.697 22.179ZM134.226 15.1037C134.184 12.4707 134.796 10.3479 135.967 8.63067L132.662 6.37733C130.953 8.8841 130.173 11.8493 130.227 15.1683L134.226 15.1037ZM135.961 8.63861C137.229 6.79776 138.952 5.36994 141.187 4.35791L139.537 0.714088C136.684 2.00606 134.375 3.89024 132.667 6.36939L135.961 8.63861ZM141.215 4.34486C143.449 3.29114 146.077 2.736 149.146 2.736V-1.264C145.591 -1.264 142.363 -0.619144 139.509 0.727135L141.215 4.34486ZM149.146 2.736C152.268 2.736 154.919 3.29285 157.149 4.34486L158.855 0.727135C155.998 -0.62085 152.745 -1.264 149.146 -1.264V2.736ZM157.162 4.35093C159.454 5.41216 161.171 6.86224 162.386 8.6854L165.714 6.4666C164.05 3.96976 161.734 2.05983 158.842 0.721064L157.162 4.35093ZM162.403 8.71061C163.645 10.5138 164.342 12.6983 164.427 15.3445L168.425 15.2155C168.319 11.9097 167.431 8.95819 165.697 6.44139L162.403 8.71061ZM166.426 13.28H156.562V17.28H166.426V13.28ZM158.562 15.226C158.499 12.9005 157.567 10.8639 155.888 9.18578L153.06 12.0142C154.07 13.0241 154.53 14.1075 154.563 15.334L158.562 15.226ZM155.938 9.23716C154.177 7.34605 151.769 6.512 149.002 6.512V10.512C150.94 10.512 152.179 11.0699 153.01 11.9628L155.938 9.23716ZM149.05 6.51256C146.654 6.45553 144.489 7.05976 142.681 8.43062L145.099 11.6174C146.076 10.8762 147.318 10.4725 148.955 10.5114L149.05 6.51256ZM142.69 8.424C140.752 9.87748 139.874 12.0127 139.874 14.488H143.874C143.874 13.0273 144.34 12.1865 145.09 11.624L142.69 8.424ZM139.874 14.488C139.874 16.6245 140.565 18.5234 142.077 19.9667L144.839 17.0733C144.239 16.5006 143.874 15.7115 143.874 14.488H139.874ZM142.113 19.9999C143.415 21.1834 145.103 22.1139 147.087 22.8447L148.47 19.0913C146.805 18.4781 145.614 17.7766 144.804 17.0401L142.113 19.9999ZM147.087 22.8447C148.939 23.5272 151.052 24.2554 153.421 25.0292L154.663 21.2268C152.329 20.4646 150.265 19.7528 148.47 19.0913L147.087 22.8447ZM153.388 25.018C155.786 25.848 157.957 26.8098 159.908 27.8984L161.857 24.4056C159.679 23.1902 157.291 22.136 154.696 21.238L153.388 25.018ZM159.908 27.8984C161.697 28.8972 163.108 30.2116 164.173 31.85L167.527 29.67C166.096 27.4684 164.195 25.7108 161.857 24.4056L159.908 27.8984ZM164.186 31.8694C165.155 33.3222 165.722 35.3256 165.722 38.032H169.722C169.722 34.7864 169.042 31.9418 167.514 29.6506L164.186 31.8694ZM165.722 38.032C165.722 40.3137 165.147 42.4077 163.988 44.3524L167.424 46.3996C168.954 43.8323 169.722 41.0303 169.722 38.032H165.722ZM163.988 44.3524C162.857 46.251 161.158 47.8345 158.797 49.0789L160.663 52.6171C163.583 51.0775 165.868 49.013 167.424 46.3996L163.988 44.3524ZM158.823 49.0657C156.535 50.2306 153.625 50.864 150.01 50.864V54.864C154.075 54.864 157.646 54.1534 160.638 52.6303L158.823 49.0657ZM180.299 51.424L179.387 53.2041L179.405 53.213L179.422 53.2215L180.299 51.424ZM175.907 47.464L174.183 48.478L175.907 47.464ZM178.355 34L179.601 35.5646L178.355 34ZM199.091 30.904V32.904H201.091V30.904H199.091ZM197.003 24.64L198.278 23.0992L197.003 24.64ZM186.923 24.28L187.978 25.9793L187.999 25.9664L188.019 25.9529L186.923 24.28ZM184.331 28.168V30.168H185.98L186.294 28.5497L184.331 28.168ZM175.331 28.168L173.34 27.9836L173.137 30.168H175.331V28.168ZM177.923 21.4L176.361 20.1506L176.352 20.1627L176.342 20.1749L177.923 21.4ZM183.827 17.008L184.602 18.852L184.617 18.8454L184.633 18.8386L183.827 17.008ZM203.915 19.24L202.603 20.7497L203.915 19.24ZM208.307 52V54H210.307V52H208.307ZM200.459 52L198.481 52.2967L198.737 54H200.459V52ZM199.595 46.24L201.573 45.9433L200.695 40.0901L197.843 45.2762L199.595 46.24ZM195.131 50.992L194.041 49.3151L194.031 49.3214L194.022 49.3279L195.131 50.992ZM196.067 43.072L194.552 41.767L194.541 41.7792L194.531 41.7916L196.067 43.072ZM198.875 36.664L200.853 36.9625L201.2 34.664H198.875V36.664ZM185.771 38.032L187.038 39.5799L187.058 39.5631L187.078 39.5456L185.771 38.032ZM185.771 44.512L186.948 42.8945L185.771 44.512ZM187.859 50.864C184.976 50.864 182.784 50.4107 181.176 49.6265L179.422 53.2215C181.751 54.3573 184.598 54.864 187.859 54.864V50.864ZM181.211 49.6439C179.523 48.7794 178.368 47.7029 177.631 46.45L174.183 48.478C175.366 50.4891 177.139 52.0526 179.387 53.2041L181.211 49.6439ZM177.631 46.45C176.859 45.1377 176.467 43.6901 176.467 42.064H172.467C172.467 44.3739 173.035 46.5263 174.183 48.478L177.631 46.45ZM176.467 42.064C176.467 39.3615 177.485 37.2493 179.601 35.5646L177.109 32.4354C174.041 34.8787 172.467 38.1425 172.467 42.064H176.467ZM179.601 35.5646C181.688 33.9026 185.047 32.904 190.019 32.904V28.904C184.623 28.904 180.206 29.9694 177.109 32.4354L179.601 35.5646ZM190.019 32.904H199.091V28.904H190.019V32.904ZM201.091 30.904V30.04H197.091V30.904H201.091ZM201.091 30.04C201.091 27.2201 200.278 24.754 198.278 23.0992L195.728 26.1808C196.512 26.83 197.091 27.9639 197.091 30.04H201.091ZM198.278 23.0992C196.477 21.6086 194.279 20.912 191.819 20.912V24.912C193.488 24.912 194.745 25.3674 195.728 26.1808L198.278 23.0992ZM191.819 20.912C189.608 20.912 187.584 21.4557 185.827 22.6071L188.019 25.9529C189.046 25.2803 190.286 24.912 191.819 24.912V20.912ZM185.868 22.5807C183.965 23.7619 182.801 25.5573 182.368 27.7863L186.294 28.5497C186.533 27.3227 187.097 26.5261 187.978 25.9793L185.868 22.5807ZM184.331 26.168H175.331V30.168H184.331V26.168ZM177.323 28.3524C177.53 26.111 178.266 24.2226 179.504 22.6251L176.342 20.1749C174.604 22.4174 173.612 25.041 173.34 27.9836L177.323 28.3524ZM179.485 22.6494C180.8 21.0056 182.491 19.7385 184.602 18.852L183.053 15.164C180.363 16.2935 178.118 17.9544 176.361 20.1506L179.485 22.6494ZM184.633 18.8386C186.747 17.9084 189.155 17.424 191.891 17.424V13.424C188.675 13.424 185.708 13.9955 183.022 15.1774L184.633 18.8386ZM191.891 17.424C196.65 17.424 200.14 18.6096 202.603 20.7497L205.227 17.7303C201.834 14.7824 197.308 13.424 191.891 13.424V17.424ZM202.603 20.7497C205.007 22.8378 206.307 25.8361 206.307 30.04H210.307C210.307 24.9319 208.68 20.7302 205.227 17.7303L202.603 20.7497ZM206.307 30.04V52H210.307V30.04H206.307ZM208.307 50H200.459V54H208.307V50ZM202.437 51.7033L201.573 45.9433L197.617 46.5367L198.481 52.2967L202.437 51.7033ZM197.843 45.2762C196.953 46.8944 195.698 48.2383 194.041 49.3151L196.221 52.6689C198.404 51.2497 200.126 49.4256 201.348 47.2038L197.843 45.2762ZM194.022 49.3279C192.569 50.2964 190.566 50.864 187.859 50.864V54.864C191.105 54.864 193.949 54.1836 196.241 52.6561L194.022 49.3279ZM189.947 47.664C193.066 47.664 195.716 46.6176 197.604 44.3524L194.531 41.7916C193.538 42.9824 192.108 43.664 189.947 43.664V47.664ZM197.583 44.377C199.347 42.3283 200.42 39.8298 200.853 36.9625L196.898 36.3655C196.562 38.5862 195.763 40.3597 194.552 41.767L197.583 44.377ZM198.875 34.664H191.027V38.664H198.875V34.664ZM191.027 34.664C188.427 34.664 186.072 35.1298 184.464 36.5184L187.078 39.5456C187.583 39.1102 188.731 38.664 191.027 38.664V34.664ZM184.505 36.4841C183.013 37.7049 182.187 39.3406 182.187 41.272H186.187C186.187 40.6114 186.418 40.0871 187.038 39.5799L184.505 36.4841ZM182.187 41.272C182.187 43.2544 182.983 44.9569 184.595 46.1295L186.948 42.8945C186.448 42.5311 186.187 42.0736 186.187 41.272H182.187ZM184.595 46.1295C186.088 47.2155 187.932 47.664 189.947 47.664V43.664C188.506 43.664 187.566 43.3445 186.948 42.8945L184.595 46.1295ZM217.102 52H215.102V54H217.102V52ZM217.102 16.288V14.288H215.102V16.288H217.102ZM225.238 16.288L227.224 16.0516L227.014 14.288H225.238V16.288ZM225.958 22.336L223.972 22.5724L224.736 28.9908L227.73 23.2625L225.958 22.336ZM230.71 17.296L229.692 15.5741L229.684 15.5793L229.675 15.5845L230.71 17.296ZM248.422 19.6L246.92 20.9207L248.422 19.6ZM252.094 52V54H254.094V52H252.094ZM242.878 52H240.878V54H242.878V52ZM241.006 25.648L242.595 24.4331L241.006 25.648ZM228.766 25.936L227.295 24.581L227.285 24.5917L227.275 24.6024L228.766 25.936ZM226.318 52V54H228.318V52H226.318ZM219.102 52V16.288H215.102V52H219.102ZM217.102 18.288H225.238V14.288H217.102V18.288ZM223.252 16.5244L223.972 22.5724L227.944 22.0996L227.224 16.0516L223.252 16.5244ZM227.73 23.2625C228.663 21.4788 229.99 20.0686 231.745 19.0075L229.675 15.5845C227.302 17.0194 225.461 18.9692 224.185 21.4095L227.73 23.2625ZM231.727 19.0179C233.486 17.9785 235.596 17.424 238.126 17.424V13.424C234.992 13.424 232.158 14.1175 229.692 15.5741L231.727 19.0179ZM238.126 17.424C242.087 17.424 244.925 18.6514 246.92 20.9207L249.924 18.2793C247.023 14.9806 242.996 13.424 238.126 13.424V17.424ZM246.92 20.9207C248.929 23.2052 250.094 26.7351 250.094 31.84H254.094C254.094 26.1929 252.811 21.5628 249.924 18.2793L246.92 20.9207ZM250.094 31.84V52H254.094V31.84H250.094ZM252.094 50H242.878V54H252.094V50ZM244.878 52V32.704H240.878V52H244.878ZM244.878 32.704C244.878 29.4003 244.213 26.549 242.595 24.4331L239.417 26.8629C240.295 28.011 240.878 29.8637 240.878 32.704H244.878ZM242.595 24.4331C240.864 22.17 238.242 21.2 235.174 21.2V25.2C237.385 25.2 238.652 25.862 239.417 26.8629L242.595 24.4331ZM235.174 21.2C232.051 21.2 229.372 22.3254 227.295 24.581L230.237 27.291C231.519 25.8986 233.112 25.2 235.174 25.2V21.2ZM227.275 24.6024C225.219 26.9009 224.318 29.9787 224.318 33.568H228.318C228.318 30.6293 229.049 28.6191 230.256 27.2696L227.275 24.6024ZM224.318 33.568V52H228.318V33.568H224.318ZM226.318 50H217.102V54H226.318V50ZM267.315 51.352L266.509 53.1826L266.525 53.1894L266.54 53.196L267.315 51.352ZM261.555 47.032L259.985 48.2713L261.555 47.032ZM258.963 40.696V38.696H256.708L256.977 40.9343L258.963 40.696ZM268.251 40.696L270.209 40.2908L269.879 38.696H268.251V40.696ZM270.555 44.296L269.298 45.8519L269.33 45.8782L269.364 45.9031L270.555 44.296ZM279.915 44.512L278.619 42.9881L278.6 43.0046L278.581 43.0215L279.915 44.512ZM279.339 38.608L278.551 40.4463L278.579 40.4583L278.607 40.4695L279.339 38.608ZM273.723 36.952L274.152 34.9987L274.15 34.9982L273.723 36.952ZM269.043 35.728L268.463 37.642L269.043 35.728ZM264.651 33.928L263.631 35.6486L263.668 35.6706L263.706 35.691L264.651 33.928ZM261.483 31.048L259.829 32.1726L259.839 32.1884L259.851 32.204L261.483 31.048ZM264.003 18.664L262.708 17.1394L262.701 17.1455L262.694 17.1517L264.003 18.664ZM284.739 18.376L283.5 19.9465L283.508 19.9523L283.515 19.9579L284.739 18.376ZM289.275 26.512V28.512H291.572L291.256 26.2369L289.275 26.512ZM280.563 26.512L278.601 26.9042L278.923 28.512H280.563V26.512ZM270.555 23.56L269.408 21.9215L269.388 21.9355L269.368 21.9499L270.555 23.56ZM276.819 30.328L277.268 28.3792L277.265 28.3785L276.819 30.328ZM283.659 32.272L283 34.1604L283.026 34.1695L283.052 34.1778L283.659 32.272ZM288.699 35.368L287.209 36.7031L287.221 36.7161L287.233 36.7289L288.699 35.368ZM290.571 41.2H288.571V41.2217L288.571 41.2435L290.571 41.2ZM288.843 47.176L287.185 46.0563L288.843 47.176ZM283.659 51.352L282.843 49.526L283.659 51.352ZM275.667 50.864C272.708 50.864 270.197 50.3933 268.089 49.508L266.54 53.196C269.232 54.3267 272.289 54.864 275.667 54.864V50.864ZM268.12 49.5214C265.98 48.5799 264.337 47.3287 263.124 45.7927L259.985 48.2713C261.652 50.3833 263.849 52.0121 266.509 53.1826L268.12 49.5214ZM263.124 45.7927C261.922 44.2696 261.194 42.5075 260.948 40.4577L256.977 40.9343C257.307 43.6845 258.307 46.1464 259.985 48.2713L263.124 45.7927ZM258.963 42.696H268.251V38.696H258.963V42.696ZM266.292 41.1012C266.686 43.0046 267.739 44.5927 269.298 45.8519L271.811 42.7401C270.874 41.9833 270.391 41.1714 270.209 40.2908L266.292 41.1012ZM269.364 45.9031C271.083 47.1761 273.186 47.736 275.523 47.736V43.736C273.827 43.736 272.618 43.3359 271.745 42.6889L269.364 45.9031ZM275.523 47.736C277.733 47.736 279.796 47.3021 281.248 46.0025L278.581 43.0215C278.209 43.3539 277.344 43.736 275.523 43.736V47.736ZM281.21 46.0359C282.522 44.9207 283.355 43.461 283.355 41.704H279.355C279.355 42.059 279.227 42.4713 278.619 42.9881L281.21 46.0359ZM283.355 41.704C283.355 40.6443 283.121 39.5993 282.527 38.6867C281.926 37.7647 281.06 37.1356 280.07 36.7465L278.607 40.4695C278.961 40.6084 279.103 40.7593 279.175 40.8693C279.252 40.9887 279.355 41.2277 279.355 41.704H283.355ZM280.126 36.7697C278.615 36.1221 276.604 35.5382 274.152 34.9987L273.293 38.9053C275.641 39.4218 277.374 39.9419 278.551 40.4463L280.126 36.7697ZM274.15 34.9982C272.668 34.674 271.159 34.2795 269.623 33.8139L268.463 37.642C270.094 38.1365 271.705 38.558 273.295 38.9058L274.15 34.9982ZM269.623 33.8139C268.154 33.369 266.813 32.8177 265.595 32.165L263.706 35.691C265.176 36.4782 266.763 37.127 268.463 37.642L269.623 33.8139ZM265.67 32.2074C264.599 31.5728 263.758 30.7998 263.115 29.892L259.851 32.204C260.84 33.6002 262.11 34.7472 263.631 35.6486L265.67 32.2074ZM263.136 29.9234C262.586 29.1142 262.259 28.0609 262.259 26.656H258.259C258.259 28.7071 258.747 30.5818 259.829 32.1726L263.136 29.9234ZM262.259 26.656C262.259 24.0958 263.233 21.9746 265.311 20.1763L262.694 17.1517C259.78 19.6734 258.259 22.8802 258.259 26.656H262.259ZM265.297 20.1886C267.366 18.4318 270.399 17.424 274.659 17.424V13.424C269.798 13.424 265.727 14.5762 262.708 17.1394L265.297 20.1886ZM274.659 17.424C278.581 17.424 281.458 18.3362 283.5 19.9465L285.977 16.8055C283.027 14.4798 279.184 13.424 274.659 13.424V17.424ZM283.515 19.9579C285.608 21.5774 286.879 23.8007 287.294 26.7871L291.256 26.2369C290.71 22.3113 288.957 19.1106 285.962 16.7941L283.515 19.9579ZM289.275 24.512H280.563V28.512H289.275V24.512ZM282.524 26.1198C282.17 24.3499 281.275 22.8672 279.777 21.8748C278.338 20.921 276.541 20.552 274.587 20.552V24.552C276.088 24.552 277.015 24.843 277.568 25.2092C278.062 25.5368 278.427 26.0341 278.601 26.9042L282.524 26.1198ZM274.587 20.552C272.633 20.552 270.829 20.9267 269.408 21.9215L271.701 25.1985C272.2 24.8493 273.084 24.552 274.587 24.552V20.552ZM269.368 21.9499C268.017 22.9451 267.187 24.3511 267.187 26.08H271.187C271.187 25.7929 271.268 25.5189 271.741 25.1701L269.368 21.9499ZM267.187 26.08C267.187 28.262 268.715 29.6444 270.456 30.425L272.093 26.775C271.572 26.5414 271.339 26.3354 271.249 26.226C271.187 26.1519 271.187 26.1256 271.187 26.08H267.187ZM270.456 30.425C272.014 31.1233 274.002 31.7343 276.372 32.2775L277.265 28.3785C275.028 27.8657 273.319 27.3247 272.093 26.775L270.456 30.425ZM276.369 32.2768C278.806 32.8392 281.015 33.4679 283 34.1604L284.317 30.3836C282.174 29.6361 279.823 28.9688 277.268 28.3792L276.369 32.2768ZM283.052 34.1778C284.888 34.7619 286.24 35.6222 287.209 36.7031L290.188 34.0329C288.661 32.3298 286.653 31.1261 284.265 30.3661L283.052 34.1778ZM287.233 36.7289C288.024 37.5804 288.571 38.964 288.571 41.2H292.571C292.571 38.348 291.87 35.8436 290.164 34.0071L287.233 36.7289ZM288.571 41.2435C288.61 43.0511 288.146 44.6342 287.185 46.0563L290.5 48.2957C291.939 46.1658 292.627 43.7649 292.57 41.1565L288.571 41.2435ZM287.185 46.0563C286.225 47.478 284.811 48.6465 282.843 49.526L284.474 53.178C287.018 52.0415 289.06 50.426 290.5 48.2957L287.185 46.0563ZM282.843 49.526C280.898 50.395 278.524 50.864 275.667 50.864V54.864C278.953 54.864 281.907 54.325 284.474 53.178L282.843 49.526Z" fill="#A4C639"/>
</svg>
