<svg width="299" height="86" viewBox="0 0 299 86" fill="none" xmlns="http://www.w3.org/2000/svg">
<g clip-path="url(#clip0_579_2002)">
<mask id="mask0_579_2002" style="mask-type:luminance" maskUnits="userSpaceOnUse" x="0" y="0" width="299" height="86">
<path d="M299 0H0V86H299V0Z" fill="white"/>
</mask>
<g mask="url(#mask0_579_2002)">
<path d="M4.89453 68.0003H2.89453V70.0003H4.89453V68.0003ZM4.89453 17.6003V15.6003H2.89453V17.6003H4.89453ZM36.6465 20.7683L35.6733 22.5156L35.6864 22.5229L35.6996 22.5299L36.6465 20.7683ZM45.1425 29.5523L43.3402 30.4192L43.3468 30.433L43.3536 30.4467L45.1425 29.5523ZM45.1425 56.1203L43.3491 55.235L43.3445 55.2444L45.1425 56.1203ZM36.6465 64.9043L37.6027 66.661L37.6103 66.6567L36.6465 64.9043ZM14.1105 60.0803H12.1105V62.0803H14.1105V60.0803ZM31.6785 58.0643L32.641 59.8175L32.6541 59.8103L32.6671 59.8029L31.6785 58.0643ZM36.9345 52.1603L38.7817 52.9271L38.7867 52.9149L36.9345 52.1603ZM14.1105 25.4483V23.4483H12.1105V25.4483H14.1105ZM6.89453 68.0003V17.6003H2.89453V68.0003H6.89453ZM4.89453 19.6003H22.1025V15.6003H4.89453V19.6003ZM22.1025 19.6003C27.7833 19.6003 32.267 20.6183 35.6733 22.5156L37.6197 19.021C33.442 16.6942 28.2297 15.6003 22.1025 15.6003V19.6003ZM35.6996 22.5299C39.1814 24.4014 41.7065 27.0229 43.3402 30.4192L46.9448 28.6854C44.9305 24.4977 41.7916 21.2632 37.5934 19.0066L35.6996 22.5299ZM43.3536 30.4467C45.06 33.8595 45.9505 37.9568 45.9505 42.8003H49.9505C49.9505 37.4678 48.969 32.7331 46.9314 28.6579L43.3536 30.4467ZM45.9505 42.8003C45.9505 47.6429 45.0603 51.7687 43.3491 55.235L46.9359 57.0056C48.9687 52.8879 49.9505 48.1337 49.9505 42.8003H45.9505ZM43.3445 55.2444C41.7112 58.597 39.1809 61.2279 35.6827 63.1519L37.6103 66.6567C41.7921 64.3567 44.9258 61.1316 46.9405 56.9962L43.3445 55.2444ZM35.6904 63.1477C32.2798 65.0041 27.7895 66.0003 22.1025 66.0003V70.0003C28.2235 70.0003 33.4293 68.9326 37.6027 66.661L35.6904 63.1477ZM22.1025 66.0003H4.89453V70.0003H22.1025V66.0003ZM14.1105 62.0803H21.6705V58.0803H14.1105V62.0803ZM21.6705 62.0803C26.0725 62.0803 29.7848 61.3856 32.641 59.8175L30.716 56.3111C28.6762 57.431 25.7165 58.0803 21.6705 58.0803V62.0803ZM32.6671 59.8029C35.4919 58.1966 37.5513 55.8912 38.7817 52.9271L35.0873 51.3935C34.2057 53.5174 32.7611 55.148 30.6899 56.3257L32.6671 59.8029ZM38.7867 52.9149C39.965 50.0227 40.5185 46.6323 40.5185 42.8003H36.5185C36.5185 46.2643 36.016 49.1139 35.0823 51.4057L38.7867 52.9149ZM40.5185 42.8003C40.5185 39.0124 39.9639 35.6471 38.7867 32.7577L35.0823 34.2669C36.0171 36.5615 36.5185 39.3882 36.5185 42.8003H40.5185ZM38.7867 32.7577C37.5602 29.7473 35.5026 27.4101 32.6671 25.7977L30.6899 29.2749C32.7504 30.4465 34.1968 32.0933 35.0823 34.2669L38.7867 32.7577ZM32.6671 25.7977C29.8038 24.1696 26.0809 23.4483 21.6705 23.4483V27.4483C25.7081 27.4483 28.6572 28.119 30.6899 29.2749L32.6671 25.7977ZM21.6705 23.4483H14.1105V27.4483H21.6705V23.4483ZM12.1105 25.4483V60.0803H16.1105V25.4483H12.1105ZM56.082 68.0003H54.082V70.0003H56.082V68.0003ZM56.082 17.6003V15.6003H54.082V17.6003H56.082ZM67.026 17.6003L68.8132 16.7027L68.2596 15.6003H67.026V17.6003ZM83.082 49.5683L81.2948 50.4659L83.0941 54.0485L84.8741 50.4563L83.082 49.5683ZM98.922 17.6003V15.6003H97.6809L97.1299 16.7123L98.922 17.6003ZM109.867 17.6003H111.867V15.6003H109.867V17.6003ZM109.867 68.0003V70.0003H111.867V68.0003H109.867ZM100.651 68.0003H98.65V70.0003H100.651V68.0003ZM100.651 33.2243H102.651L98.8677 32.3169L100.651 33.2243ZM86.61 60.8003V62.8003H87.836L88.3923 61.7077L86.61 60.8003ZM79.338 60.8003L77.5557 61.7077L78.112 62.8003H79.338V60.8003ZM65.298 33.2243L67.0803 32.3169L63.298 33.2243H65.298ZM65.298 68.0003V70.0003H67.298V68.0003H65.298ZM58.082 68.0003V17.6003H54.082V68.0003H58.082ZM56.082 19.6003H67.026V15.6003H56.082V19.6003ZM65.2388 18.4979L81.2948 50.4659L84.8692 48.6707L68.8132 16.7027L65.2388 18.4979ZM84.8741 50.4563L100.715 18.4883L97.1299 16.7123L81.2899 48.6803L84.8741 50.4563ZM98.922 19.6003H109.867V15.6003H98.922V19.6003ZM107.867 17.6003V68.0003H111.867V17.6003H107.867ZM109.867 66.0003H100.651V70.0003H109.867V66.0003ZM102.651 68.0003V33.2243H98.65V68.0003H102.651ZM98.8677 32.3169L84.8277 59.8929L88.3923 61.7077L102.433 34.1317L98.8677 32.3169ZM86.61 58.8003H79.338V62.8003H86.61V58.8003ZM81.1203 59.8929L67.0803 32.3169L63.5157 34.1317L77.5557 61.7077L81.1203 59.8929ZM63.298 33.2243V68.0003H67.298V33.2243H63.298ZM65.298 66.0003H56.082V70.0003H65.298V66.0003ZM144.217 66.9923L143.385 68.8109L143.398 68.8168L143.411 68.8225L144.217 66.9923ZM137.521 61.5203L135.867 62.6449L135.873 62.6527L135.878 62.6605L137.521 61.5203ZM135.001 52.8083V50.8083H132.973L133.001 52.8365L135.001 52.8083ZM144.721 52.8083L146.72 52.7267L146.641 50.8083H144.721V52.8083ZM147.241 58.7843L145.806 60.1773L145.827 60.1987L145.848 60.2195L147.241 58.7843ZM159.769 59.4323L161.019 60.994L161.034 60.9815L161.05 60.9687L159.769 59.4323ZM159.985 49.8563L158.629 51.3259L158.642 51.3386L158.657 51.3511L159.985 49.8563ZM148.177 44.7443L147.524 46.6346L147.533 46.6378L148.177 44.7443ZM139.249 39.5603L137.803 40.9413L137.811 40.9498L137.819 40.9582L139.249 39.5603ZM136.225 31.1363H138.225V31.1202V31.104L136.225 31.1363ZM138.313 23.5043L136.666 22.3697L136.661 22.3776L138.313 23.5043ZM144.361 18.5363L145.186 20.3582L145.2 20.3518L145.214 20.3452L144.361 18.5363ZM162.001 18.5363L161.148 20.3452L161.154 20.3482L161.161 20.3512L162.001 18.5363ZM168.049 23.5763L166.385 24.6857L166.394 24.6984L166.402 24.7109L168.049 23.5763ZM170.425 31.2803V33.2803H172.491L172.424 31.2158L170.425 31.2803ZM160.561 31.2803L158.562 31.3343L158.615 33.2803H160.561V31.2803ZM158.473 26.6003L157.009 27.9631L157.034 27.9893L157.059 28.0145L158.473 26.6003ZM153.001 24.5123L152.954 26.5117L152.977 26.5123H153.001V24.5123ZM147.889 26.0243L149.089 27.6243L149.098 27.6177L147.889 26.0243ZM147.457 34.5203L146.076 35.967L146.094 35.9838L146.112 36.0002L147.457 34.5203ZM158.041 39.1283L158.695 37.2383L158.679 37.2326L158.662 37.2271L158.041 39.1283ZM169.849 46.7603L168.172 47.8503L168.179 47.86L168.185 47.8697L169.849 46.7603ZM163.729 66.8483L164.637 68.6306L164.649 68.6241L164.662 68.6174L163.729 66.8483ZM154.009 66.8643C150.538 66.8643 147.557 66.2786 145.024 65.1621L143.411 68.8225C146.541 70.202 150.089 70.8643 154.009 70.8643V66.8643ZM145.049 65.1737C142.514 64.0134 140.574 62.4117 139.164 60.3801L135.878 62.6605C137.732 65.3329 140.256 67.3792 143.385 68.8109L145.049 65.1737ZM139.175 60.3957C137.799 58.3726 137.045 55.8663 137.001 52.7801L133.001 52.8365C133.054 56.5663 133.979 59.868 135.867 62.6449L139.175 60.3957ZM135.001 54.8083H144.721V50.8083H135.001V54.8083ZM142.723 52.8899C142.838 55.7145 143.867 58.1789 145.806 60.1773L148.676 57.3913C147.448 56.1257 146.796 54.6061 146.72 52.7267L142.723 52.8899ZM145.848 60.2195C147.94 62.2495 150.719 63.1603 153.937 63.1603V59.1603C151.491 59.1603 149.807 58.4871 148.634 57.3491L145.848 60.2195ZM153.937 63.1603C156.69 63.1603 159.123 62.5106 161.019 60.994L158.52 57.8706C157.536 58.658 156.08 59.1603 153.937 59.1603V63.1603ZM161.05 60.9687C162.971 59.3675 163.929 57.2079 163.929 54.6803H159.929C159.929 56.0887 159.447 57.0971 158.489 57.8959L161.05 60.9687ZM163.929 54.6803C163.929 52.1639 163.118 49.9654 161.314 48.3615L158.657 51.3511C159.444 52.0512 159.929 53.0686 159.929 54.6803H163.929ZM161.342 48.3867C159.835 46.9961 157.888 45.9384 155.591 45.1553L154.3 48.9413C156.227 49.5982 157.639 50.4125 158.629 51.3259L161.342 48.3867ZM155.591 45.1553C153.478 44.4351 151.222 43.6669 148.821 42.8508L147.533 46.6378C149.933 47.4537 152.188 48.2215 154.3 48.9413L155.591 45.1553ZM148.831 42.854C145.128 41.574 142.458 39.9824 140.68 38.1624L137.819 40.9582C140.168 43.3622 143.451 45.2267 147.524 46.6346L148.831 42.854ZM140.696 38.1793C139.104 36.5116 138.225 34.2353 138.225 31.1363H134.225C134.225 35.0453 135.362 38.385 137.803 40.9413L140.696 38.1793ZM138.225 31.104C138.183 28.471 138.795 26.3482 139.966 24.631L136.661 22.3776C134.952 24.8844 134.172 27.8496 134.226 31.1686L138.225 31.104ZM139.96 24.6389C141.228 22.7981 142.951 21.3702 145.186 20.3582L143.536 16.7144C140.683 18.0064 138.374 19.8905 136.666 22.3697L139.96 24.6389ZM145.214 20.3452C147.448 19.2914 150.076 18.7363 153.145 18.7363V14.7363C149.59 14.7363 146.362 15.3812 143.508 16.7274L145.214 20.3452ZM153.145 18.7363C156.267 18.7363 158.918 19.2931 161.148 20.3452L162.854 16.7274C159.997 15.3795 156.744 14.7363 153.145 14.7363V18.7363ZM161.161 20.3512C163.453 21.4125 165.17 22.8625 166.385 24.6857L169.713 22.4669C168.049 19.9701 165.733 18.0601 162.841 16.7214L161.161 20.3512ZM166.402 24.7109C167.644 26.5141 168.341 28.6986 168.426 31.3448L172.424 31.2158C172.318 27.91 171.43 24.9585 169.696 22.4417L166.402 24.7109ZM170.425 29.2803H160.561V33.2803H170.425V29.2803ZM162.561 31.2263C162.498 28.9008 161.566 26.8642 159.887 25.1861L157.059 28.0145C158.069 29.0244 158.529 30.1078 158.562 31.3343L162.561 31.2263ZM159.937 25.2375C158.176 23.3463 155.768 22.5123 153.001 22.5123V26.5123C154.939 26.5123 156.178 27.0702 157.009 27.9631L159.937 25.2375ZM153.049 22.5129C150.653 22.4558 148.488 23.0601 146.68 24.4309L149.098 27.6177C150.075 26.8765 151.317 26.4728 152.954 26.5117L153.049 22.5129ZM146.689 24.4243C144.751 25.8778 143.873 28.013 143.873 30.4883H147.873C147.873 29.0276 148.339 28.1868 149.089 27.6243L146.689 24.4243ZM143.873 30.4883C143.873 32.6248 144.564 34.5237 146.076 35.967L148.838 33.0736C148.238 32.5009 147.873 31.7118 147.873 30.4883H143.873ZM146.112 36.0002C147.414 37.1837 149.102 38.1142 151.086 38.845L152.469 35.0916C150.804 34.4784 149.613 33.7769 148.803 33.0404L146.112 36.0002ZM151.086 38.845C152.938 39.5275 155.051 40.2557 157.42 41.0295L158.662 37.2271C156.328 36.4649 154.264 35.7531 152.469 35.0916L151.086 38.845ZM157.387 41.0183C159.785 41.8483 161.956 42.8101 163.907 43.8987L165.856 40.4059C163.678 39.1905 161.29 38.1363 158.695 37.2383L157.387 41.0183ZM163.907 43.8987C165.696 44.8975 167.107 46.2119 168.172 47.8503L171.526 45.6703C170.095 43.4687 168.194 41.7111 165.856 40.4059L163.907 43.8987ZM168.185 47.8697C169.154 49.3225 169.721 51.3259 169.721 54.0323H173.721C173.721 50.7867 173.041 47.9421 171.513 45.6509L168.185 47.8697ZM169.721 54.0323C169.721 56.314 169.146 58.408 167.987 60.3527L171.423 62.3999C172.953 59.8326 173.721 57.0306 173.721 54.0323H169.721ZM167.987 60.3527C166.856 62.2513 165.156 63.8348 162.796 65.0792L164.662 68.6174C167.582 67.0778 169.867 65.0133 171.423 62.3999L167.987 60.3527ZM162.822 65.066C160.534 66.2309 157.624 66.8643 154.009 66.8643V70.8643C158.074 70.8643 161.645 70.1537 164.637 68.6306L162.822 65.066ZM184.298 67.4243L183.386 69.2044L183.404 69.2133L183.421 69.2218L184.298 67.4243ZM203.09 46.9043V48.9043H205.09V46.9043H203.09ZM190.922 40.2803L191.977 41.9796L191.998 41.9667L192.018 41.9532L190.922 40.2803ZM188.33 44.1683V46.1683H189.979L190.293 44.55L188.33 44.1683ZM179.33 44.1683L177.339 43.9839L177.136 46.1683H179.33V44.1683ZM181.922 37.4003L180.36 36.1509L180.351 36.163L180.341 36.1752L181.922 37.4003ZM187.826 33.0083L188.601 34.8523L188.616 34.8457L188.632 34.8389L187.826 33.0083ZM212.306 68.0003V70.0003H214.306V68.0003H212.306ZM204.458 68.0003L202.48 68.297L202.736 70.0003H204.458V68.0003ZM203.594 62.2403L205.572 61.9436L204.694 56.0904L201.842 61.2765L203.594 62.2403ZM199.13 66.9923L198.04 65.3154L198.03 65.3217L198.021 65.3282L199.13 66.9923ZM200.066 59.0723L198.551 57.7673L198.54 57.7795L198.53 57.7919L200.066 59.0723ZM202.874 52.6643L204.852 52.9628L205.199 50.6643H202.874V52.6643ZM189.77 54.0323L191.037 55.5802L191.057 55.5634L191.077 55.5459L189.77 54.0323ZM191.858 66.8643C188.975 66.8643 186.783 66.411 185.175 65.6268L183.421 69.2218C185.75 70.3576 188.597 70.8643 191.858 70.8643V66.8643ZM185.21 65.6442C183.522 64.7797 182.367 63.7032 181.63 62.4503L178.182 64.4783C179.365 66.4894 181.138 68.0529 183.386 69.2044L185.21 65.6442ZM181.63 62.4503C180.858 61.138 180.466 59.6904 180.466 58.0643H176.466C176.466 60.3742 177.034 62.5266 178.182 64.4783L181.63 62.4503ZM180.466 58.0643C180.466 55.3618 181.484 53.2496 183.6 51.5649L181.108 48.4357C178.04 50.879 176.466 54.1428 176.466 58.0643H180.466ZM183.6 51.5649C185.687 49.9029 189.046 48.9043 194.018 48.9043V44.9043C188.622 44.9043 184.205 45.9697 181.108 48.4357L183.6 51.5649ZM194.018 48.9043H203.09V44.9043H194.018V48.9043ZM205.09 46.9043V46.0403H201.09V46.9043H205.09ZM205.09 46.0403C205.09 43.2204 204.277 40.7543 202.277 39.0995L199.727 42.1811C200.511 42.8303 201.09 43.9642 201.09 46.0403H205.09ZM202.277 39.0995C200.476 37.6089 198.278 36.9123 195.818 36.9123V40.9123C197.487 40.9123 198.744 41.3677 199.727 42.1811L202.277 39.0995ZM195.818 36.9123C193.607 36.9123 191.583 37.456 189.826 38.6074L192.018 41.9532C193.045 41.2806 194.285 40.9123 195.818 40.9123V36.9123ZM189.867 38.581C187.964 39.7622 186.8 41.5576 186.367 43.7866L190.293 44.55C190.532 43.323 191.096 42.5264 191.977 41.9796L189.867 38.581ZM188.33 42.1683H179.33V46.1683H188.33V42.1683ZM181.322 44.3527C181.529 42.1113 182.265 40.2229 183.503 38.6254L180.341 36.1752C178.603 38.4177 177.611 41.0413 177.339 43.9839L181.322 44.3527ZM183.484 38.6497C184.799 37.0059 186.49 35.7388 188.601 34.8523L187.052 31.1643C184.362 32.2938 182.117 33.9547 180.36 36.1509L183.484 38.6497ZM188.632 34.8389C190.746 33.9087 193.154 33.4243 195.89 33.4243V29.4243C192.674 29.4243 189.707 29.9958 187.021 31.1777L188.632 34.8389ZM195.89 33.4243C200.649 33.4243 204.139 34.6099 206.602 36.75L209.226 33.7306C205.833 30.7827 201.307 29.4243 195.89 29.4243V33.4243ZM206.602 36.75C209.006 38.8381 210.306 41.8364 210.306 46.0403H214.306C214.306 40.9322 212.679 36.7305 209.226 33.7306L206.602 36.75ZM210.306 46.0403V68.0003H214.306V46.0403H210.306ZM212.306 66.0003H204.458V70.0003H212.306V66.0003ZM206.436 67.7036L205.572 61.9436L201.616 62.537L202.48 68.297L206.436 67.7036ZM201.842 61.2765C200.952 62.8947 199.697 64.2385 198.04 65.3154L200.22 68.6692C202.403 67.2501 204.125 65.4259 205.347 63.2041L201.842 61.2765ZM198.021 65.3282C196.568 66.2967 194.565 66.8643 191.858 66.8643V70.8643C195.104 70.8643 197.948 70.1839 200.24 68.6564L198.021 65.3282ZM193.946 63.6643C197.065 63.6643 199.715 62.6179 201.603 60.3527L198.53 57.7919C197.537 58.9827 196.107 59.6643 193.946 59.6643V63.6643ZM201.582 60.3773C203.346 58.3286 204.419 55.8301 204.852 52.9628L200.897 52.3658C200.561 54.5865 199.762 56.36 198.551 57.7673L201.582 60.3773ZM202.874 50.6643H195.026V54.6643H202.874V50.6643ZM195.026 50.6643C192.426 50.6643 190.071 51.1301 188.463 52.5187L191.077 55.5459C191.582 55.1105 192.73 54.6643 195.026 54.6643V50.6643ZM188.504 52.4844C187.012 53.7052 186.186 55.3409 186.186 57.2723H190.186C190.186 56.6117 190.417 56.0874 191.037 55.5802L188.504 52.4844ZM186.186 57.2723C186.186 59.2547 186.982 60.9572 188.594 62.1298L190.947 58.8948C190.447 58.5314 190.186 58.0739 190.186 57.2723H186.186ZM188.594 62.1298C190.087 63.2158 191.931 63.6643 193.946 63.6643V59.6643C192.505 59.6643 191.565 59.3448 190.947 58.8948L188.594 62.1298ZM221.101 68.0003H219.101V70.0003H221.101V68.0003ZM221.101 32.2883V30.2883H219.101V32.2883H221.101ZM229.237 32.2883L231.223 32.0519L231.013 30.2883H229.237V32.2883ZM229.957 38.3363L227.971 38.5727L228.735 44.9911L231.729 39.2628L229.957 38.3363ZM234.709 33.2963L233.691 31.5744L233.683 31.5796L233.674 31.5848L234.709 33.2963ZM256.093 68.0003V70.0003H258.093V68.0003H256.093ZM246.877 68.0003H244.877V70.0003H246.877V68.0003ZM232.765 41.9363L231.294 40.5813L231.284 40.592L231.274 40.6027L232.765 41.9363ZM230.317 68.0003V70.0003H232.317V68.0003H230.317ZM223.101 68.0003V32.2883H219.101V68.0003H223.101ZM221.101 34.2883H229.237V30.2883H221.101V34.2883ZM227.251 32.5247L227.971 38.5727L231.943 38.0999L231.223 32.0519L227.251 32.5247ZM231.729 39.2628C232.662 37.4791 233.989 36.0689 235.744 35.0078L233.674 31.5848C231.301 33.0197 229.46 34.9695 228.184 37.4098L231.729 39.2628ZM235.726 35.0182C237.485 33.9788 239.595 33.4243 242.125 33.4243V29.4243C238.991 29.4243 236.157 30.1178 233.691 31.5744L235.726 35.0182ZM242.125 33.4243C246.086 33.4243 248.924 34.6517 250.919 36.921L253.923 34.2796C251.022 30.9809 246.995 29.4243 242.125 29.4243V33.4243ZM250.919 36.921C252.928 39.2055 254.093 42.7354 254.093 47.8403H258.093C258.093 42.1932 256.81 37.5631 253.923 34.2796L250.919 36.921ZM254.093 47.8403V68.0003H258.093V47.8403H254.093ZM256.093 66.0003H246.877V70.0003H256.093V66.0003ZM248.877 68.0003V48.7043H244.877V68.0003H248.877ZM248.877 48.7043C248.877 45.4006 248.212 42.5493 246.594 40.4334L243.416 42.8632C244.294 44.0113 244.877 45.864 244.877 48.7043H248.877ZM246.594 40.4334C244.863 38.1703 242.241 37.2003 239.173 37.2003V41.2003C241.384 41.2003 242.651 41.8623 243.416 42.8632L246.594 40.4334ZM239.173 37.2003C236.05 37.2003 233.371 38.3257 231.294 40.5813L234.236 43.2913C235.518 41.8989 237.111 41.2003 239.173 41.2003V37.2003ZM231.274 40.6027C229.218 42.9012 228.317 45.979 228.317 49.5683H232.317C232.317 46.6296 233.048 44.6194 234.255 43.2699L231.274 40.6027ZM228.317 49.5683V68.0003H232.317V49.5683H228.317ZM230.317 66.0003H221.101V70.0003H230.317V66.0003ZM271.314 67.3523L270.508 69.1829L270.524 69.1897L270.539 69.1963L271.314 67.3523ZM262.962 56.6963V54.6963H260.707L260.976 56.9346L262.962 56.6963ZM272.25 56.6963L274.208 56.2911L273.878 54.6963H272.25V56.6963ZM274.554 60.2963L273.297 61.8522L273.329 61.8785L273.363 61.9034L274.554 60.2963ZM283.914 60.5123L282.618 58.9884L282.599 59.0049L282.58 59.0218L283.914 60.5123ZM283.338 54.6083L282.55 56.4466L282.578 56.4586L282.606 56.4698L283.338 54.6083ZM277.722 52.9523L278.151 50.999L278.149 50.9985L277.722 52.9523ZM268.65 49.9283L267.63 51.6489L267.667 51.6709L267.705 51.6913L268.65 49.9283ZM265.482 47.0483L263.828 48.1729L263.838 48.1887L263.85 48.2043L265.482 47.0483ZM268.002 34.6643L266.707 33.1397L266.7 33.1458L266.693 33.152L268.002 34.6643ZM288.738 34.3763L287.499 35.9468L287.507 35.9526L287.514 35.9582L288.738 34.3763ZM293.274 42.5123V44.5123H295.571L295.255 42.2372L293.274 42.5123ZM284.562 42.5123L282.6 42.9045L282.922 44.5123H284.562V42.5123ZM274.554 39.5603L273.407 37.9218L273.387 37.9358L273.367 37.9502L274.554 39.5603ZM280.818 46.3283L281.267 44.3795L281.264 44.3788L280.818 46.3283ZM287.658 48.2723L286.999 50.1607L287.025 50.1698L287.051 50.1782L287.658 48.2723ZM292.698 51.3683L291.208 52.7034L291.22 52.7164L291.232 52.7292L292.698 51.3683ZM294.57 57.2003H292.57V57.222V57.2438L294.57 57.2003ZM279.666 66.8643C276.707 66.8643 274.196 66.3936 272.088 65.5083L270.539 69.1963C273.231 70.327 276.288 70.8643 279.666 70.8643V66.8643ZM272.119 65.5217C269.979 64.5802 268.336 63.329 267.123 61.793L263.984 64.2716C265.651 66.3836 267.848 68.0124 270.508 69.1829L272.119 65.5217ZM267.123 61.793C265.921 60.2699 265.193 58.5078 264.947 56.458L260.976 56.9346C261.306 59.6848 262.306 62.1466 263.984 64.2716L267.123 61.793ZM262.962 58.6963H272.25V54.6963H262.962V58.6963ZM270.291 57.1015C270.685 59.0049 271.738 60.593 273.297 61.8522L275.81 58.7404C274.873 57.9836 274.39 57.1717 274.208 56.2911L270.291 57.1015ZM273.363 61.9034C275.082 63.1764 277.186 63.7363 279.522 63.7363V59.7363C277.826 59.7363 276.617 59.3362 275.744 58.6892L273.363 61.9034ZM279.522 63.7363C281.732 63.7363 283.795 63.3024 285.247 62.0028L282.58 59.0218C282.208 59.3542 281.343 59.7363 279.522 59.7363V63.7363ZM285.209 62.0362C286.521 60.921 287.354 59.4613 287.354 57.7043H283.354C283.354 58.0593 283.226 58.4716 282.618 58.9884L285.209 62.0362ZM287.354 57.7043C287.354 56.6446 287.12 55.5996 286.526 54.687C285.925 53.765 285.059 53.1359 284.069 52.7468L282.606 56.4698C282.96 56.6087 283.102 56.7596 283.174 56.8696C283.251 56.989 283.354 57.228 283.354 57.7043H287.354ZM284.125 52.77C282.614 52.1224 280.603 51.5385 278.151 50.999L277.292 54.9056C279.64 55.4221 281.373 55.9422 282.55 56.4466L284.125 52.77ZM278.149 50.9985C276.667 50.6743 275.158 50.2798 273.622 49.8143L272.462 53.6423C274.093 54.1368 275.704 54.5583 277.294 54.9061L278.149 50.9985ZM273.622 49.8143C272.153 49.3693 270.812 48.8181 269.594 48.1653L267.705 51.6913C269.175 52.4785 270.762 53.1273 272.462 53.6423L273.622 49.8143ZM269.669 48.2077C268.598 47.5731 267.757 46.8001 267.114 45.8923L263.85 48.2043C264.838 49.6005 266.109 50.7475 267.63 51.6489L269.669 48.2077ZM267.135 45.9237C266.585 45.1145 266.258 44.0612 266.258 42.6563H262.258C262.258 44.7074 262.746 46.5821 263.828 48.1729L267.135 45.9237ZM266.258 42.6563C266.258 40.0961 267.232 37.9749 269.31 36.1766L266.693 33.152C263.779 35.6737 262.258 38.8805 262.258 42.6563H266.258ZM269.296 36.1889C271.365 34.4321 274.398 33.4243 278.658 33.4243V29.4243C273.797 29.4243 269.726 30.5765 266.707 33.1397L269.296 36.1889ZM278.658 33.4243C282.58 33.4243 285.457 34.3365 287.499 35.9468L289.976 32.8058C287.026 30.4801 283.183 29.4243 278.658 29.4243V33.4243ZM287.514 35.9582C289.607 37.5777 290.878 39.801 291.293 42.7874L295.255 42.2372C294.709 38.3116 292.956 35.1109 289.961 32.7944L287.514 35.9582ZM293.274 40.5123H284.562V44.5123H293.274V40.5123ZM286.523 42.1201C286.169 40.3502 285.274 38.8675 283.776 37.8751C282.337 36.9213 280.54 36.5523 278.586 36.5523V40.5523C280.087 40.5523 281.014 40.8433 281.567 41.2095C282.061 41.5371 282.426 42.0344 282.6 42.9045L286.523 42.1201ZM278.586 36.5523C276.632 36.5523 274.828 36.927 273.407 37.9218L275.7 41.1988C276.199 40.8496 277.083 40.5523 278.586 40.5523V36.5523ZM273.367 37.9502C272.016 38.9454 271.186 40.3514 271.186 42.0803H275.186C275.186 41.7932 275.267 41.5192 275.74 41.1704L273.367 37.9502ZM271.186 42.0803C271.186 44.2623 272.714 45.6447 274.455 46.4253L276.092 42.7753C275.571 42.5417 275.338 42.3357 275.248 42.2263C275.186 42.1522 275.186 42.1259 275.186 42.0803H271.186ZM274.455 46.4253C276.013 47.1236 278.001 47.7346 280.371 48.2778L281.264 44.3788C279.027 43.866 277.318 43.325 276.092 42.7753L274.455 46.4253ZM280.368 48.2771C282.805 48.8395 285.014 49.4682 286.999 50.1607L288.316 46.3839C286.173 45.6364 283.822 44.9691 281.267 44.3795L280.368 48.2771ZM287.051 50.1782C288.887 50.7622 290.239 51.6225 291.208 52.7034L294.187 50.0332C292.66 48.3301 290.652 47.1264 288.264 46.3664L287.051 50.1782ZM291.232 52.7292C292.023 53.5807 292.57 54.9643 292.57 57.2003H296.57C296.57 54.3483 295.869 51.8439 294.163 50.0074L291.232 52.7292ZM292.57 57.2438C292.609 59.0514 292.145 60.6345 291.184 62.0566L294.499 64.296C295.938 62.1661 296.626 59.7652 296.569 57.1568L292.57 57.2438ZM291.184 62.0566C290.224 63.4783 288.81 64.6468 286.842 65.5263L288.473 69.1783C291.017 68.0418 293.059 66.4263 294.499 64.296L291.184 62.0566ZM286.842 65.5263C284.897 66.3953 282.523 66.8643 279.666 66.8643V70.8643C282.952 70.8643 285.906 70.3253 288.473 69.1783L286.842 65.5263Z" fill="#A4C639"/>
<path d="M4.89453 68.0003V17.6003H22.1025C28.0065 17.6003 32.8545 18.6563 36.6465 20.7683C40.4865 22.8323 43.3185 25.7603 45.1425 29.5523C47.0145 33.2963 47.9505 37.7123 47.9505 42.8003C47.9505 47.8883 47.0145 52.3283 45.1425 56.1203C43.3185 59.8643 40.4865 62.7923 36.6465 64.9043C32.8545 66.9683 28.0065 68.0003 22.1025 68.0003H4.89453ZM14.1105 60.0803H21.6705C25.8945 60.0803 29.2305 59.4083 31.6785 58.0643C34.1265 56.6723 35.8785 54.7043 36.9345 52.1603C37.9905 49.5683 38.5185 46.4483 38.5185 42.8003C38.5185 39.2003 37.9905 36.1043 36.9345 33.5123C35.8785 30.9203 34.1265 28.9283 31.6785 27.5363C29.2305 26.1443 25.8945 25.4483 21.6705 25.4483H14.1105V60.0803ZM56.082 68.0003V17.6003H67.026L83.082 49.5683L98.922 17.6003H109.867V68.0003H100.651V33.2243L86.61 60.8003H79.338L65.298 33.2243V68.0003H56.082ZM154.009 68.8643C150.313 68.8643 147.049 68.2403 144.217 66.9923C141.385 65.6963 139.153 63.8723 137.521 61.5203C135.889 59.1203 135.049 56.2163 135.001 52.8083H144.721C144.817 55.1603 145.657 57.1523 147.241 58.7843C148.873 60.3683 151.105 61.1603 153.937 61.1603C156.385 61.1603 158.329 60.5843 159.769 59.4323C161.209 58.2323 161.929 56.6483 161.929 54.6803C161.929 52.6163 161.281 51.0083 159.985 49.8563C158.737 48.7043 157.057 47.7683 154.945 47.0483C152.833 46.3283 150.577 45.5603 148.177 44.7443C144.289 43.4003 141.313 41.6723 139.249 39.5603C137.233 37.4483 136.225 34.6403 136.225 31.1363C136.177 28.1603 136.873 25.6163 138.313 23.5043C139.801 21.3443 141.817 19.6883 144.361 18.5363C146.905 17.3363 149.833 16.7363 153.145 16.7363C156.505 16.7363 159.457 17.3363 162.001 18.5363C164.593 19.7363 166.609 21.4163 168.049 23.5763C169.537 25.7363 170.329 28.3043 170.425 31.2803H160.561C160.513 29.5043 159.817 27.9443 158.473 26.6003C157.177 25.2083 155.353 24.5123 153.001 24.5123C150.985 24.4643 149.281 24.9683 147.889 26.0243C146.545 27.0323 145.873 28.5203 145.873 30.4883C145.873 32.1683 146.401 33.5123 147.457 34.5203C148.513 35.4803 149.953 36.2963 151.777 36.9683C153.601 37.6403 155.689 38.3603 158.041 39.1283C160.537 39.9923 162.817 41.0003 164.881 42.1523C166.945 43.3043 168.601 44.8403 169.849 46.7603C171.097 48.6323 171.721 51.0563 171.721 54.0323C171.721 56.6723 171.049 59.1203 169.705 61.3763C168.361 63.6323 166.369 65.4563 163.729 66.8483C161.089 68.1923 157.849 68.8643 154.009 68.8643ZM191.858 68.8643C188.786 68.8643 186.266 68.3843 184.298 67.4243C182.33 66.4163 180.866 65.0963 179.906 63.4643C178.946 61.8323 178.466 60.0323 178.466 58.0643C178.466 54.7523 179.762 52.0643 182.354 50.0003C184.946 47.9363 188.834 46.9043 194.018 46.9043H203.09V46.0403C203.09 43.5923 202.394 41.7923 201.002 40.6403C199.61 39.4883 197.882 38.9123 195.818 38.9123C193.946 38.9123 192.314 39.3683 190.922 40.2803C189.53 41.1443 188.666 42.4403 188.33 44.1683H179.33C179.57 41.5763 180.434 39.3203 181.922 37.4003C183.458 35.4803 185.426 34.0163 187.826 33.0083C190.226 31.9523 192.914 31.4243 195.89 31.4243C200.978 31.4243 204.986 32.6963 207.914 35.2403C210.842 37.7843 212.306 41.3843 212.306 46.0403V68.0003H204.458L203.594 62.2403C202.538 64.1603 201.05 65.7443 199.13 66.9923C197.258 68.2403 194.834 68.8643 191.858 68.8643ZM193.946 61.6643C196.586 61.6643 198.626 60.8003 200.066 59.0723C201.554 57.3443 202.49 55.2083 202.874 52.6643H195.026C192.578 52.6643 190.826 53.1203 189.77 54.0323C188.714 54.8963 188.186 55.9763 188.186 57.2723C188.186 58.6643 188.714 59.7443 189.77 60.5123C190.826 61.2803 192.218 61.6643 193.946 61.6643ZM221.101 68.0003V32.2883H229.237L229.957 38.3363C231.061 36.2243 232.645 34.5443 234.709 33.2963C236.821 32.0483 239.293 31.4243 242.125 31.4243C246.541 31.4243 249.973 32.8163 252.421 35.6003C254.869 38.3843 256.093 42.4643 256.093 47.8403V68.0003H246.877V48.7043C246.877 45.6323 246.253 43.2803 245.005 41.6483C243.757 40.0163 241.813 39.2003 239.173 39.2003C236.581 39.2003 234.445 40.1123 232.765 41.9363C231.133 43.7603 230.317 46.3043 230.317 49.5683V68.0003H221.101ZM279.666 68.8643C276.498 68.8643 273.714 68.3603 271.314 67.3523C268.914 66.2963 266.994 64.8563 265.554 63.0323C264.114 61.2083 263.25 59.0963 262.962 56.6963H272.25C272.538 58.0883 273.306 59.2883 274.554 60.2963C275.85 61.2563 277.506 61.7363 279.522 61.7363C281.538 61.7363 283.002 61.3283 283.914 60.5123C284.874 59.6963 285.354 58.7603 285.354 57.7043C285.354 56.1683 284.682 55.1363 283.338 54.6083C281.994 54.0323 280.122 53.4803 277.722 52.9523C276.186 52.6163 274.626 52.2083 273.042 51.7283C271.458 51.2483 269.994 50.6483 268.65 49.9283C267.354 49.1603 266.298 48.2003 265.482 47.0483C264.666 45.8483 264.258 44.3843 264.258 42.6563C264.258 39.4883 265.506 36.8243 268.002 34.6643C270.546 32.5043 274.098 31.4243 278.658 31.4243C282.882 31.4243 286.242 32.4083 288.738 34.3763C291.282 36.3443 292.794 39.0563 293.274 42.5123H284.562C284.034 39.8723 282.042 38.5523 278.586 38.5523C276.858 38.5523 275.514 38.8883 274.554 39.5603C273.642 40.2323 273.186 41.0723 273.186 42.0803C273.186 43.1363 273.882 43.9763 275.274 44.6003C276.666 45.2243 278.514 45.8003 280.818 46.3283C283.314 46.9043 285.594 47.5523 287.658 48.2723C289.77 48.9443 291.45 49.9763 292.698 51.3683C293.946 52.7123 294.57 54.6563 294.57 57.2003C294.618 59.4083 294.042 61.4003 292.842 63.1763C291.642 64.9523 289.914 66.3443 287.658 67.3523C285.402 68.3603 282.738 68.8643 279.666 68.8643Z" fill="#EDF4D7"/>
</g>
</g>
<defs>
<clipPath id="clip0_579_2002">
<rect width="299" height="86" fill="white"/>
</clipPath>
</defs>
</svg>
