<svg width="32" height="32" viewBox="0 0 32 32" fill="none" xmlns="http://www.w3.org/2000/svg">
<path d="M12 12H10V14H12V12Z" fill="#1ABC9C"/>
<path d="M8 12H6V14H8V12Z" fill="#1ABC9C"/>
<path d="M4 12H2V14H4V12Z" fill="#1ABC9C"/>
<path d="M26 30H24V27H20C18.6744 26.9985 17.4034 26.4713 16.4661 25.5339C15.5287 24.5966 15.0015 23.3256 15 22V20.7207L12.6838 19.9487C12.5418 19.9013 12.4122 19.8227 12.3046 19.7185C12.197 19.6144 12.1142 19.4874 12.0622 19.347C12.0103 19.2065 11.9905 19.0562 12.0044 18.9071C12.0184 18.7581 12.0656 18.614 12.1426 18.4856L15 13.7229V11C15.0026 8.61386 15.9517 6.32622 17.639 4.63896C19.3262 2.95171 21.6139 2.00265 24 2H29V4H24C22.1441 4.00206 20.3648 4.74023 19.0525 6.05253C17.7402 7.36484 17.0021 9.14412 17 11V14C17 14.1812 16.9507 14.359 16.8574 14.5144L14.4988 18.4456L16.3162 19.0513C16.5153 19.1177 16.6885 19.245 16.8112 19.4153C16.934 19.5855 17 19.7901 17 20V22C17.0009 22.7954 17.3172 23.5579 17.8796 24.1204C18.4421 24.6828 19.2046 24.9991 20 25H25C25.2652 25 25.5196 25.1054 25.7071 25.2929C25.8946 25.4804 26 25.7348 26 26V30Z" fill="#1ABC9C"/>
<path d="M23.0001 12H19.0001V14H23.0001V12Z" fill="#1ABC9C"/>
</svg>
