<svg width="32" height="32" viewBox="0 0 32 32" fill="none" xmlns="http://www.w3.org/2000/svg">
<path d="M30.0001 2H28.0001V30H30.0001V2Z" fill="#FF4081"/>
<path d="M20.0001 10L18.586 11.4141L22.172 15H11.899C11.6512 13.786 10.9614 12.7072 9.96339 11.9728C8.96539 11.2384 7.73026 10.9008 6.49746 11.0253C5.26465 11.1499 4.12201 11.7277 3.29104 12.6468C2.46008 13.566 2 14.7609 2 16C2 17.2391 2.46008 18.434 3.29104 19.3532C4.12201 20.2723 5.26465 20.8501 6.49746 20.9747C7.73026 21.0992 8.96539 20.7616 9.96339 20.0272C10.9614 19.2928 11.6512 18.214 11.899 17H22.172L18.586 20.5859L20.0001 22L26.0001 16L20.0001 10ZM7.00008 19C6.40674 19 5.82672 18.8241 5.33337 18.4944C4.84002 18.1648 4.4555 17.6962 4.22844 17.1481C4.00138 16.5999 3.94197 15.9967 4.05772 15.4147C4.17348 14.8328 4.4592 14.2982 4.87876 13.8787C5.29832 13.4591 5.83287 13.1734 6.41481 13.0576C6.99675 12.9419 7.59995 13.0013 8.14813 13.2284C8.69631 13.4554 9.16484 13.8399 9.49449 14.3333C9.82413 14.8266 10.0001 15.4067 10.0001 16C9.99921 16.7954 9.68286 17.5579 9.12044 18.1204C8.55802 18.6828 7.79546 18.9991 7.00008 19Z" fill="#FF4081"/>
</svg>
